<?xml version="1.0" encoding="UTF-8" standalone="no"?>
<!-- Created with Inkscape (http://www.inkscape.org/) -->

<svg
   version="1.1"
   id="svg1364"
   xml:space="preserve"
   width="95.000008"
   height="95.000008"
   viewBox="0 0 95.000008 95.000008"
   xmlns="http://www.w3.org/2000/svg"
   xmlns:svg="http://www.w3.org/2000/svg"><defs
     id="defs1368" /><g
     id="g1370"
     transform="matrix(1.3333333,0,0,1.3333333,0,2.7083336e-6)"><g
       id="g1372"><path
         d="M 0,0 H 71.25 V 71.25 H 0 Z"
         style="fill:#008000;fill-opacity:1;fill-rule:nonzero;stroke:none"
         id="path1374" /><path
         d="M 18.75,34.5 H 45 V 63.75 H 18.75 Z"
         style="fill:#000000;fill-opacity:1;fill-rule:nonzero;stroke:none"
         id="path1376" /><path
         d="M 37.199,53.336 18.637,34.773 39.32,14.09 57.883,32.652 Z"
         style="fill:#000000;fill-opacity:1;fill-rule:nonzero;stroke:none"
         id="path1378" /><path
         d="m 30,52.5 h 3.75 V 60 H 30 Z"
         style="fill:#ffcc00;fill-opacity:1;fill-rule:nonzero;stroke:none"
         id="path1380" /><path
         d="m 30,39.75 h 3.75 V 45 H 30 Z"
         style="fill:#ffcc00;fill-opacity:1;fill-rule:nonzero;stroke:none"
         id="path1382" /><path
         d="M 41.973,32.652 39.32,30 l 5.305,-5.305 2.648,2.653 z"
         style="fill:#ffcc00;fill-opacity:1;fill-rule:nonzero;stroke:none"
         id="path1384" /><path
         d="M 32.652,42.402 30,39.75 l 3.711,-3.711 2.652,2.649 z"
         style="fill:#ffcc00;fill-opacity:1;fill-rule:nonzero;stroke:none"
         id="path1386" /><path
         d="m 45,33.75 h 11.25 v 30 H 45 Z"
         style="fill:#808080;fill-opacity:1;fill-rule:nonzero;stroke:none"
         id="path1388" /><path
         d="m 44.625,61.82 -7.957,-7.957 21.215,-21.211 7.953,7.953 z"
         style="fill:#808080;fill-opacity:1;fill-rule:nonzero;stroke:none"
         id="path1390" /><path
         d="M 7.5,34.473 H 18.75 V 63.75 H 7.5 Z"
         style="fill:#808080;fill-opacity:1;fill-rule:nonzero;stroke:none"
         id="path1392" /><path
         d="M 31.363,6.137 39.32,14.09 18.676,34.734 10.719,26.781 Z"
         style="fill:#808080;fill-opacity:1;fill-rule:nonzero;stroke:none"
         id="path1394" /></g></g></svg>
