<?xml version="1.0" encoding="UTF-8" standalone="no"?>
<!-- Created with Inkscape (http://www.inkscape.org/) -->

<svg
   version="1.1"
   id="svg1823"
   xml:space="preserve"
   width="95.000069"
   height="95.000008"
   viewBox="0 0 95.000069 95.000008"
   xmlns="http://www.w3.org/2000/svg"
   xmlns:svg="http://www.w3.org/2000/svg"><defs
     id="defs1827" /><g
     id="g1829"
     transform="matrix(1.3333333,0,0,1.3333333,0,2.7083336e-6)"><g
       id="g1831"><path
         d="M 0,0 H 71.25 V 71.25 H 0 Z"
         style="fill:#008000;fill-opacity:1;fill-rule:nonzero;stroke:none"
         id="path1833" /><path
         d="m 45,33.75 h 11.25 v 30 H 45 Z"
         style="fill:#808080;fill-opacity:1;fill-rule:nonzero;stroke:none"
         id="path1835" /><path
         d="M 7.5,30 H 18.75 V 63.75 H 7.5 Z"
         style="fill:#808080;fill-opacity:1;fill-rule:nonzero;stroke:none"
         id="path1837" /><path
         d="M 15.453,37.953 7.5,30 31.363,6.137 39.32,14.09 Z"
         style="fill:#808080;fill-opacity:1;fill-rule:nonzero;stroke:none"
         id="path1839" /><path
         d="m 44.625,61.82 -7.957,-7.957 21.215,-21.211 7.953,7.953 z"
         style="fill:#808080;fill-opacity:1;fill-rule:nonzero;stroke:none"
         id="path1841" /><path
         d="M 18.75,34.5 H 45 V 63.75 H 18.75 Z"
         style="fill:#000000;fill-opacity:1;fill-rule:nonzero;stroke:none"
         id="path1843" /><path
         d="M 37.199,53.336 18.637,34.773 39.32,14.09 57.883,32.652 Z"
         style="fill:#000000;fill-opacity:1;fill-rule:nonzero;stroke:none"
         id="path1845" /><path
         d="m 30,52.5 h 3.75 V 60 H 30 Z"
         style="fill:#ffcc00;fill-opacity:1;fill-rule:nonzero;stroke:none"
         id="path1847" /><path
         d="m 30,39.75 h 3.75 V 45 H 30 Z"
         style="fill:#ffcc00;fill-opacity:1;fill-rule:nonzero;stroke:none"
         id="path1849" /><path
         d="M 41.973,32.652 39.32,30 l 5.305,-5.305 2.648,2.653 z"
         style="fill:#ffcc00;fill-opacity:1;fill-rule:nonzero;stroke:none"
         id="path1851" /><path
         d="M 32.652,42.402 30,39.75 l 3.711,-3.711 2.652,2.649 z"
         style="fill:#ffcc00;fill-opacity:1;fill-rule:nonzero;stroke:none"
         id="path1853" /><g
         id="g1855"><path
           d="m 31.137,6.16 c 0,0.008 -0.004,0.012 -0.012,0.012 -0.004,0 -0.008,-0.004 -0.008,-0.012 0,-0.004 0.004,-0.008 0.008,-0.008 0.008,0 0.012,0.004 0.012,0.008 z"
           style="fill:#00ff00;fill-opacity:1;fill-rule:nonzero;stroke:#00ff00;stroke-width:0.749999;stroke-linecap:butt;stroke-linejoin:miter;stroke-miterlimit:4;stroke-dasharray:none;stroke-opacity:1"
           id="path1857" /></g><g
         id="g1859"><path
           d="m 31.137,6.16 c 0,0.008 -0.004,0.012 -0.012,0.012 -0.004,0 -0.008,-0.004 -0.008,-0.012 0,-0.004 0.004,-0.008 0.008,-0.008 0.008,0 0.012,0.004 0.012,0.008 z"
           style="fill:#00ff00;fill-opacity:1;fill-rule:nonzero;stroke:#00ff00;stroke-width:0.749999;stroke-linecap:butt;stroke-linejoin:miter;stroke-miterlimit:4;stroke-dasharray:none;stroke-opacity:1"
           id="path1861" /></g><g
         id="g1863"><path
           d="M 31.363,6.137 39.32,14.09 18.637,34.773 18.75,63.75 H 7.5 V 30 Z"
           style="fill:none;stroke:#00ff00;stroke-width:1.13386;stroke-linecap:butt;stroke-linejoin:miter;stroke-miterlimit:4;stroke-dasharray:3.40158, 3.40158;stroke-dashoffset:0;stroke-opacity:1"
           id="path1865" /></g><g
         id="g1867"><path
           d="m 57.883,32.652 7.953,7.953 -9.586,9.602 V 63.75 H 45 l 0.004,-18.207 z"
           style="fill:none;stroke:#ff0000;stroke-width:1.13386;stroke-linecap:butt;stroke-linejoin:miter;stroke-miterlimit:4;stroke-dasharray:3.40158, 3.40158;stroke-dashoffset:0;stroke-opacity:1"
           id="path1869" /></g><g
         id="g1871"><path
           d="m 60.883,32.652 h -6 3 v -3 6"
           style="fill:none;stroke:#ff0000;stroke-width:1.13386;stroke-linecap:butt;stroke-linejoin:miter;stroke-miterlimit:4;stroke-dasharray:none;stroke-opacity:1"
           id="path1873" /></g><g
         id="g1875"><path
           d="m 65.836,37.605 v 6 -3 h -3 6"
           style="fill:none;stroke:#ff0000;stroke-width:1.13386;stroke-linecap:butt;stroke-linejoin:miter;stroke-miterlimit:4;stroke-dasharray:none;stroke-opacity:1"
           id="path1877" /></g><g
         id="g1879"><path
           d="m 57.398,47.438 -2.296,5.542 1.148,-2.773 -2.773,-1.145 5.546,2.293"
           style="fill:none;stroke:#ff0000;stroke-width:1.13386;stroke-linecap:butt;stroke-linejoin:miter;stroke-miterlimit:4;stroke-dasharray:none;stroke-opacity:1"
           id="path1881" /></g><g
         id="g1883"><path
           d="m 58.371,61.629 -4.242,4.242 2.121,-2.121 -2.121,-2.121 4.242,4.242"
           style="fill:none;stroke:#ff0000;stroke-width:1.13386;stroke-linecap:butt;stroke-linejoin:miter;stroke-miterlimit:4;stroke-dasharray:none;stroke-opacity:1"
           id="path1885" /></g><g
         id="g1887"><path
           d="M 47.121,61.629 42.879,65.871 45,63.75 l -2.121,-2.121 4.242,4.242"
           style="fill:none;stroke:#ff0000;stroke-width:1.13386;stroke-linecap:butt;stroke-linejoin:miter;stroke-miterlimit:4;stroke-dasharray:none;stroke-opacity:1"
           id="path1889" /></g><g
         id="g1891"><path
           d="m 47.777,46.691 -5.543,-2.296 2.77,1.148 1.148,-2.773 -2.293,5.542"
           style="fill:none;stroke:#ff0000;stroke-width:1.13386;stroke-linecap:butt;stroke-linejoin:miter;stroke-miterlimit:4;stroke-dasharray:none;stroke-opacity:1"
           id="path1893" /></g><g
         id="g1895"><path
           d="m 39.32,11.09 v 6 -3 h -3 6"
           style="fill:none;stroke:#00ff00;stroke-width:1.13386;stroke-linecap:butt;stroke-linejoin:miter;stroke-miterlimit:4;stroke-dasharray:none;stroke-opacity:1"
           id="path1897" /></g><g
         id="g1899"><path
           d="m 31.363,3.137 v 6 -3 h -3 6"
           style="fill:none;stroke:#00ff00;stroke-width:1.13386;stroke-linecap:butt;stroke-linejoin:miter;stroke-miterlimit:4;stroke-dasharray:none;stroke-opacity:1"
           id="path1901" /></g><g
         id="g1903"><path
           d="M 10.273,31.148 4.727,28.852 7.5,30 8.648,27.227 6.352,32.773"
           style="fill:none;stroke:#00ff00;stroke-width:1.13386;stroke-linecap:butt;stroke-linejoin:miter;stroke-miterlimit:4;stroke-dasharray:none;stroke-opacity:1"
           id="path1905" /></g><g
         id="g1907"><path
           d="m 19.785,32 -2.297,5.543 1.149,-2.77 -2.77,-1.148 5.543,2.297"
           style="fill:none;stroke:#00ff00;stroke-width:1.13386;stroke-linecap:butt;stroke-linejoin:miter;stroke-miterlimit:4;stroke-dasharray:none;stroke-opacity:1"
           id="path1909" /></g><g
         id="g1911"><path
           d="M 9.621,61.629 5.379,65.871 7.5,63.75 5.379,61.629 9.621,65.871"
           style="fill:none;stroke:#00ff00;stroke-width:1.13386;stroke-linecap:butt;stroke-linejoin:miter;stroke-miterlimit:4;stroke-dasharray:none;stroke-opacity:1"
           id="path1913" /></g><g
         id="g1915"><path
           d="m 20.871,61.629 -4.242,4.242 2.121,-2.121 -2.121,-2.121 4.242,4.242"
           style="fill:none;stroke:#00ff00;stroke-width:1.13386;stroke-linecap:butt;stroke-linejoin:miter;stroke-miterlimit:4;stroke-dasharray:none;stroke-opacity:1"
           id="path1917" /></g></g></g></svg>
