<?xml version="1.0" encoding="UTF-8" standalone="no"?>
<!-- Created with Inkscape (http://www.inkscape.org/) -->
<svg
   xmlns:dc="http://purl.org/dc/elements/1.1/"
   xmlns:cc="http://creativecommons.org/ns#"
   xmlns:rdf="http://www.w3.org/1999/02/22-rdf-syntax-ns#"
   xmlns:svg="http://www.w3.org/2000/svg"
   xmlns="http://www.w3.org/2000/svg"
   xmlns:sodipodi="http://sodipodi.sourceforge.net/DTD/sodipodi-0.dtd"
   xmlns:inkscape="http://www.inkscape.org/namespaces/inkscape"
   width="6.3500299mm"
   height="6.3499999mm"
   viewBox="0 0 6.35003 6.3499999"
   version="1.1"
   id="svg1107"
   inkscape:version="0.92.4 (5da689c313, 2019-01-14)"
   sodipodi:docname="github_box.svg">
  <defs
     id="defs1101" />
  <sodipodi:namedview
     id="base"
     pagecolor="#ffffff"
     bordercolor="#666666"
     borderopacity="1.0"
     inkscape:pageopacity="0.0"
     inkscape:pageshadow="2"
     inkscape:zoom="22.4"
     inkscape:cx="26.445112"
     inkscape:cy="9.2465536"
     inkscape:document-units="mm"
     inkscape:current-layer="layer1"
     showgrid="false"
     inkscape:window-width="1920"
     inkscape:window-height="1001"
     inkscape:window-x="-9"
     inkscape:window-y="-9"
     inkscape:window-maximized="1" />
  <metadata
     id="metadata1104">
    <rdf:RDF>
      <cc:Work
         rdf:about="">
        <dc:format>image/svg+xml</dc:format>
        <dc:type
           rdf:resource="http://purl.org/dc/dcmitype/StillImage" />
        <dc:title></dc:title>
      </cc:Work>
    </rdf:RDF>
  </metadata>
  <g
     inkscape:label="Layer 1"
     inkscape:groupmode="layer"
     id="layer1"
     transform="translate(-93.353,-157.37324)">
    <path
       style="stroke-width:0.26458332"
       d="m 93.821188,157.37324 c -0.259019,0 -0.468188,0.20466 -0.468188,0.45734 v 5.43532 c 0,0.25294 0.209169,0.45734 0.468188,0.45734 h 1.932183 c 0.03516,-0.0338 0.05064,-0.0816 0.05064,-0.12609 0,-0.0815 -0.0028,-0.29739 -0.0041,-0.58343 -0.954802,0.20709 -1.156002,-0.46044 -1.156002,-0.46044 -0.156209,-0.39616 -0.38192,-0.50229 -0.38192,-0.50229 -0.310925,-0.21282 0.02377,-0.20826 0.02377,-0.20826 0.344678,0.024 0.52555,0.35347 0.52555,0.35347 0.306062,0.52488 0.803714,0.37359 0.99994,0.28577 0.03089,-0.22197 0.119441,-0.37359 0.217556,-0.4594 -0.762296,-0.0858 -1.563727,-0.38081 -1.563727,-1.69602 0,-0.37472 0.13322,-0.68112 0.353465,-0.92139 -0.03862,-0.0867 -0.154517,-0.43565 0.02997,-0.90848 0,0 0.287665,-0.092 0.944128,0.35192 0.274601,-0.0764 0.566071,-0.11404 0.85783,-0.11575 0.291761,0.002 0.583747,0.0394 0.858345,0.11575 0.652174,-0.44393 0.939477,-0.35192 0.939477,-0.35192 0.184497,0.47283 0.06843,0.82181 0.03411,0.90848 0.218817,0.24027 0.351917,0.54667 0.351917,0.92139 0,1.31864 -0.802071,1.60905 -1.565796,1.69343 0.120136,0.10298 0.23151,0.31308 0.23151,0.63459 0,0.45938 -0.0041,0.82844 -0.0041,0.94 0,0.0454 0.01513,0.0949 0.05271,0.12867 h 1.683616 c 0.25876,0 0.47077,-0.2044 0.47077,-0.45734 v -5.43532 c 1e-5,-0.25234 -0.21145,-0.45679 -0.46973,-0.45734 z"
       id="path983-2-6-1-3-4"
       inkscape:connector-curvature="0" />
  </g>
  stroke="currentColor"
</svg>
