<?xml version="1.0" encoding="UTF-8"?>
<!-- Created with Inkscape (http://www.inkscape.org/) -->
<svg width="6.3502mm" height="6.35mm" version="1.1" viewBox="0 0 6.3502 6.35" xmlns="http://www.w3.org/2000/svg" xmlns:cc="http://creativecommons.org/ns#" xmlns:dc="http://purl.org/dc/elements/1.1/" xmlns:rdf="http://www.w3.org/1999/02/22-rdf-syntax-ns#">
 <metadata>
  <rdf:RDF>
   <cc:Work rdf:about="">
    <dc:format>image/svg+xml</dc:format>
    <dc:type rdf:resource="http://purl.org/dc/dcmitype/StillImage"/>
    <dc:title/>
   </cc:Work>
  </rdf:RDF>
 </metadata>
 <g transform="translate(-100.39 -130.54)">
  <path d="m100.86 130.54c-0.25902 0-0.46819 0.20465-0.46819 0.45733v5.4353c0 0.25294 0.20917 0.45734 0.46819 0.45734h1.9322c0.0352-0.0338 0.0506-0.0816 0.0506-0.1261 0-0.0815-3e-3 -0.29738-4e-3 -0.58342-0.9548 0.20709-1.156-0.46044-1.156-0.46044-0.15621-0.39617-0.38192-0.5023-0.38192-0.5023-0.31093-0.21281 0.0238-0.20825 0.0238-0.20825 0.34468 0.024 0.52555 0.35347 0.52555 0.35347 0.30606 0.52488 0.80371 0.37358 0.99994 0.28577 0.0309-0.22197 0.11944-0.37359 0.21755-0.45941-0.76229-0.0858-1.5637-0.3808-1.5637-1.696 0-0.37471 0.13322-0.68112 0.35346-0.92139-0.0386-0.0867-0.15451-0.43565 0.03-0.90847 0 0 0.28767-0.092 0.94413 0.35192 0.2746-0.0764 0.56607-0.11405 0.85783-0.11576 0.29176 2e-3 0.58375 0.0394 0.85834 0.11576 0.65218-0.44394 0.93948-0.35192 0.93948-0.35192 0.1845 0.47282 0.0684 0.8218 0.0341 0.90847 0.21882 0.24027 0.35192 0.54668 0.35192 0.92139 0 1.3186-0.80207 1.6091-1.5658 1.6934 0.12014 0.10298 0.23151 0.31308 0.23151 0.63458 0 0.45938-4e-3 0.82844-4e-3 0.94 0 0.0454 0.0151 0.0949 0.0527 0.12868h1.6836c0.25876 0 0.47077-0.2044 0.47077-0.45734v-5.4353c0-0.25234-0.21145-0.45678-0.46974-0.45733z" fill="#fff" stroke-width=".26458"/>
 </g>
</svg>
