<?xml version="1.0" encoding="UTF-8" standalone="no"?>
<!-- Created with Inkscape (http://www.inkscape.org/) -->

<svg
   xmlns:dc="http://purl.org/dc/elements/1.1/"
   xmlns:cc="http://creativecommons.org/ns#"
   xmlns:rdf="http://www.w3.org/1999/02/22-rdf-syntax-ns#"
   xmlns:svg="http://www.w3.org/2000/svg"
   xmlns="http://www.w3.org/2000/svg"
   xmlns:sodipodi="http://sodipodi.sourceforge.net/DTD/sodipodi-0.dtd"
   xmlns:inkscape="http://www.inkscape.org/namespaces/inkscape"
   width="210mm"
   height="297mm"
   viewBox="0 0 210 297"
   version="1.1"
   id="svg1107"
   inkscape:version="0.92.4 (5da689c313, 2019-01-14)"
   sodipodi:docname="github_box.svg">
  <defs
     id="defs1101" />
  <sodipodi:namedview
     id="base"
     pagecolor="#ffffff"
     bordercolor="#666666"
     borderopacity="1.0"
     inkscape:pageopacity="0.0"
     inkscape:pageshadow="2"
     inkscape:zoom="11.2"
     inkscape:cx="347.04363"
     inkscape:cy="489.53373"
     inkscape:document-units="mm"
     inkscape:current-layer="layer1"
     showgrid="false"
     inkscape:window-width="1920"
     inkscape:window-height="1001"
     inkscape:window-x="-9"
     inkscape:window-y="-9"
     inkscape:window-maximized="1" />
  <metadata
     id="metadata1104">
    <rdf:RDF>
      <cc:Work
         rdf:about="">
        <dc:format>image/svg+xml</dc:format>
        <dc:type
           rdf:resource="http://purl.org/dc/dcmitype/StillImage" />
        <dc:title></dc:title>
      </cc:Work>
    </rdf:RDF>
  </metadata>
  <g
     inkscape:label="Layer 1"
     inkscape:groupmode="layer"
     id="layer1">
    <path
       id="path983-2-6-1-3"
       d="m 94.175602,160.75491 h -5.411791 c -0.25902,0 -0.468577,0.20479 -0.468577,0.45746 v 5.43507 c 0,0.25295 0.209557,0.45747 0.468577,0.45747 h 5.411001 c 0.25876,0 0.47043,-0.20452 0.47043,-0.45747 v -5.43507 c 0,-0.25267 -0.21167,-0.45746 -0.47043,-0.45746 z"
       inkscape:connector-curvature="0"
       style="stroke-width:0.26458332"
       sodipodi:nodetypes="cssssssscc" />
    <path
       id="path839"
       d="m 90.51199,167.14392 c 0.171626,0.0323 0.234553,-0.0738 0.234553,-0.16505 0,-0.0815 -0.003,-0.29748 -0.0043,-0.58352 -0.9548,0.20709 -1.156174,-0.46053 -1.156174,-0.46053 -0.156178,-0.39616 -0.381863,-0.50199 -0.381863,-0.50199 -0.310925,-0.21282 0.02404,-0.20853 0.02404,-0.20853 0.344678,0.024 0.525742,0.35355 0.525742,0.35355 0.306061,0.52488 0.803485,0.37328 0.99971,0.28546 0.03089,-0.22196 0.119276,-0.37328 0.217391,-0.45909 -0.762298,-0.0858 -1.563497,-0.381 -1.563497,-1.69622 0,-0.37471 0.133016,-0.68077 0.353261,-0.92105 -0.03862,-0.0867 -0.154461,-0.43564 0.03003,-0.90846 0,0 0.287471,-0.0921 0.943934,0.35183 0.274599,-0.0764 0.56636,-0.11414 0.85812,-0.11585 0.291761,0.002 0.583522,0.0395 0.858121,0.11585 0.652173,-0.44394 0.939642,-0.35183 0.939642,-0.35183 0.184496,0.47282 0.06866,0.82179 0.03434,0.90846 0.218819,0.24028 0.351829,0.54634 0.351829,0.92105 0,1.31865 -0.802343,1.60898 -1.566069,1.69336 0.120137,0.10298 0.231691,0.3135 0.231691,0.63501 0,0.45938 -0.0043,0.82837 -0.0043,0.93993 0,0.0901 0.06006,0.19736 0.235984,0.16304"
       inkscape:connector-curvature="0"
       style="fill:#ffffff;fill-opacity:1;stroke-width:0.26458332"
       sodipodi:nodetypes="cscccccccscccccccscssc" />
  </g>
</svg>
