<?xml version="1.0" encoding="UTF-8"?>
<!-- Created with Inkscape (http://www.inkscape.org/) -->
<svg width="6.35mm" height="6.35mm" version="1.1" viewBox="0 0 6.35 6.35" xmlns="http://www.w3.org/2000/svg" xmlns:cc="http://creativecommons.org/ns#" xmlns:dc="http://purl.org/dc/elements/1.1/" xmlns:rdf="http://www.w3.org/1999/02/22-rdf-syntax-ns#">
 <metadata>
  <rdf:RDF>
   <cc:Work rdf:about="">
    <dc:format>image/svg+xml</dc:format>
    <dc:type rdf:resource="http://purl.org/dc/dcmitype/StillImage"/>
    <dc:title/>
   </cc:Work>
  </rdf:RDF>
 </metadata>
 <g transform="translate(-93.353 -157.37)">
  <path d="m93.821 157.37c-0.25902 0-0.46819 0.20466-0.46819 0.45734v5.4353c0 0.25294 0.20917 0.45734 0.46819 0.45734h1.9322c0.03516-0.0338 0.05064-0.0816 0.05064-0.12609 0-0.0815-0.0028-0.29739-0.0041-0.58343-0.9548 0.20709-1.156-0.46044-1.156-0.46044-0.15621-0.39616-0.38192-0.50229-0.38192-0.50229-0.31092-0.21282 0.02377-0.20826 0.02377-0.20826 0.34468 0.024 0.52555 0.35347 0.52555 0.35347 0.30606 0.52488 0.80371 0.37359 0.99994 0.28577 0.03089-0.22197 0.11944-0.37359 0.21756-0.4594-0.7623-0.0858-1.5637-0.38081-1.5637-1.696 0-0.37472 0.13322-0.68112 0.35346-0.92139-0.03862-0.0867-0.15452-0.43565 0.02997-0.90848 0 0 0.28766-0.092 0.94413 0.35192 0.2746-0.0764 0.56607-0.11404 0.85783-0.11575 0.29176 2e-3 0.58375 0.0394 0.85834 0.11575 0.65217-0.44393 0.93948-0.35192 0.93948-0.35192 0.1845 0.47283 0.06843 0.82181 0.03411 0.90848 0.21882 0.24027 0.35192 0.54667 0.35192 0.92139 0 1.3186-0.80207 1.609-1.5658 1.6934 0.12014 0.10298 0.23151 0.31308 0.23151 0.63459 0 0.45938-0.0041 0.82844-0.0041 0.94 0 0.0454 0.01513 0.0949 0.05271 0.12867h1.6836c0.25876 0 0.47077-0.2044 0.47077-0.45734v-5.4353c1e-5 -0.25234-0.21145-0.45679-0.46973-0.45734z" stroke-width=".26458"/>
 </g>
</svg>
