<?xml version="1.0" encoding="UTF-8"?>
<!-- Created with Inkscape (http://www.inkscape.org/) -->
<svg width="6.35mm" height="6.35mm" version="1.1" viewBox="0 0 6.35 6.35" xmlns="http://www.w3.org/2000/svg" xmlns:cc="http://creativecommons.org/ns#" xmlns:dc="http://purl.org/dc/elements/1.1/" xmlns:rdf="http://www.w3.org/1999/02/22-rdf-syntax-ns#">
 <metadata>
  <rdf:RDF>
   <cc:Work rdf:about="">
    <dc:format>image/svg+xml</dc:format>
    <dc:type rdf:resource="http://purl.org/dc/dcmitype/StillImage"/>
    <dc:title/>
   </cc:Work>
  </rdf:RDF>
 </metadata>
 <g transform="translate(-70.152 -111.64)">
  <path d="m70.621 111.64c-0.25902 0-0.4687 0.20517-0.4687 0.45785v5.4348c0 0.25294 0.20968 0.45734 0.4687 0.45734h5.4105c0.25876 0 0.47077-0.2044 0.47077-0.45734v-5.4348c0-0.25234-0.21146-0.4573-0.46974-0.45785zm2.7275 0.9803c0.60544 0 1.1744 0.23106 1.6025 0.6506 0.42811 0.41955 0.66404 0.97712 0.66404 1.5704s-0.23593 1.1509-0.66404 1.5704c-0.4281 0.41954-0.99705 0.6506-1.6025 0.6506-0.60544 0-1.1749-0.23106-1.603-0.6506-0.42811-0.41955-0.66404-0.97712-0.66404-1.5704s0.23593-1.1509 0.66404-1.5704c0.42811-0.41954 0.99757-0.6506 1.603-0.6506zm-0.49971 0.25735c-0.23499 0.0574-0.45451 0.1543-0.65009 0.28318v0.447c0 0.14986-0.0763 0.28846-0.20464 0.37001l-0.21704 0.13746c-0.0278 0.0177-0.05112 0.0403-0.06976 0.0672l-0.42323 0.60823c-5.29e-4 0.0169-0.0011 0.0336-0.0011 0.0506 0 0.15763 0.01879 0.311 0.05375 0.45837h0.18603c0.08462 0 0.16252 0.0417 0.20826 0.11162l0.25942 0.39584c0.0021 3e-3 0.25993 0.2341 0.25993 0.2341 0.05914 0.0528 0.08832 0.13088 0.07855 0.20877l-0.04083 0.32711c0.31017 0.18264 0.67296 0.28784 1.0604 0.28784 1.1387 0 2.065-0.90772 2.065-2.0236 0-0.12002-0.01095-0.23758-0.03152-0.35192l-0.05891 0.0109c-0.0011 2.1e-4 -0.0019 2e-3 -0.0021 3e-3l-0.02016 0.0796c-0.01653 0.0654-0.06497 0.11796-0.1297 0.14055-0.06474 0.0226-0.13622 0.012-0.1912-0.0284l-0.12092-0.0889c-7.94e-4 -5.3e-4 -0.0021-5.3e-4 -0.0031 0l-0.1509 0.0775c-7.93e-4 5.3e-4 -0.0016 5.3e-4 -0.0016 5.3e-4 -2.64e-4 7.9e-4 -5.29e-4 3e-3 0 4e-3 1.6e-5 0 5.29e-4 7.9e-4 0.0016 1e-3l0.0072 3e-3c0.0627 0.0231 0.10966 0.0744 0.12609 0.13797 0.01643 0.0636 1.1e-5 0.13138-0.04392 0.18087l-0.09353 0.10594c-0.06627 0.0747-0.18026 0.0903-0.2651 0.0367l-0.25373-0.1602c-7.94e-4 -5.3e-4 -0.0011-5.3e-4 -0.0026 0-0.0013 5.3e-4 -0.0013 1e-3 -0.0016 2e-3l-0.01963 0.1173c-1.51e-4 1e-3 2.65e-4 2e-3 0.0011 3e-3l0.13177 0.12092c0.07297 0.0669 0.08602 0.17457 0.03101 0.25632l-0.21549 0.32039c-2.64e-4 5.3e-4 2.1e-5 5.3e-4 0 1e-3l-0.01913 0.45837c-0.0021 0.0512-0.02363 0.099-0.06098 0.13487l-0.2868 0.27544c-0.03917 0.0376-0.09086 0.0574-0.14314 0.0574-0.03541 0-0.0713-9e-3 -0.10335-0.0274l-0.18604-0.10697c-0.04908-0.0282-0.08396-0.0752-0.09612-0.12971l-0.08578-0.38292-0.08216-0.21653c-2.65e-4 -1e-3 -0.0011-1e-3 -0.0021-2e-3l-0.37568-0.032c-0.06626-6e-3 -0.1258-0.0428-0.15916-0.0992l-0.21342-0.3607c-0.02318-0.0392-0.03219-0.0854-0.02532-0.13023l0.05374-0.35036c8e-3 -0.0521 0.03612-0.0979 0.07906-0.12971l0.32763-0.24288c0.05775-0.0427 0.1353-0.0521 0.20205-0.0248l0.31781 0.12971 0.4408 0.047c7.93e-4 8e-5 0.0016-1e-4 0.0021-5.3e-4l0.29146-0.20463c0.0011-8e-4 0.0016-2e-3 0.0011-4e-3l-0.02687-0.0589c-5.29e-4 -1e-3 -0.0016-2e-3 -0.0026-2e-3l-0.81907-0.0439c-0.03161-2e-3 -0.06294-0.0104-0.09043-0.0258-0.07211-0.0404-0.11191-0.11873-0.10128-0.19947 0.01064-0.0807 0.06965-0.14677 0.14986-0.16795l0.24598-0.0651c5.29e-4 -1.1e-4 7.94e-4 -2e-4 0.0011-5.3e-4l0.30076-0.27802c0.03248-0.0301 0.07491-0.0493 0.11937-0.0537l0.45217-0.0455c0.0013-1.2e-4 0.0024-7.9e-4 0.0027-2e-3 0 0 0.11394-0.46191 0.11627-0.46715-0.1417-0.0755-0.293-0.13474-0.45217-0.17622l-0.09043 0.10284c-0.02392 0.0273-0.05481 0.0486-0.08888 0.062l-0.23926 0.0946c-0.0042 2e-3 -0.0084 4e-3 -0.01138 7e-3l-0.3731 0.42788c-0.07409 0.0834-0.1714 0.0785-0.17466 0.0785-0.06715 0-0.13016-0.0283-0.17415-0.0785-0.04613-0.0527-0.06489-0.12203-0.05116-0.19016 0 0 0.01371-0.0513 0.02429-0.0708l0.16898-0.31161c0.0031-6e-3 0.0044-0.0123 0.0031-0.0186z" fill="#fff" stroke-width=".26458"/>
 </g>
</svg>
