<?xml version="1.0" encoding="UTF-8"?>
<!-- Created with Inkscape (http://www.inkscape.org/) -->
<svg width="6.35mm" height="6.35mm" version="1.1" viewBox="0 0 6.35 6.35" xmlns="http://www.w3.org/2000/svg" xmlns:cc="http://creativecommons.org/ns#" xmlns:dc="http://purl.org/dc/elements/1.1/" xmlns:rdf="http://www.w3.org/1999/02/22-rdf-syntax-ns#">
 <metadata>
  <rdf:RDF>
   <cc:Work rdf:about="">
    <dc:format>image/svg+xml</dc:format>
    <dc:type rdf:resource="http://purl.org/dc/dcmitype/StillImage"/>
    <dc:title/>
   </cc:Work>
  </rdf:RDF>
 </metadata>
 <g transform="translate(-92.831 -111.64)">
  <path d="m93.299 111.64c-0.25902 0-0.46819 0.20465-0.46819 0.45733v5.4348c0 0.25294 0.20917 0.45786 0.46819 0.45786h5.411c0.25876 0 0.47077-0.20492 0.47077-0.45786v-5.4348c0-0.25233-0.21146-0.45678-0.46974-0.45733zm2.7275 0.97978c0.60544 0 1.1749 0.23106 1.603 0.65061 0.42811 0.41954 0.66404 0.97712 0.66404 1.5704 0 0.59333-0.23593 1.1514-0.66404 1.571-0.4281 0.41954-0.99757 0.6506-1.603 0.6506-0.60544 0-1.1744-0.23106-1.6025-0.6506-0.42811-0.41955-0.66404-0.97764-0.66404-1.571 0-0.59332 0.23594-1.1509 0.66404-1.5704 0.42811-0.41955 0.99705-0.65061 1.6025-0.65061zm-0.4992 0.25735c-0.23499 0.0574-0.45452 0.1543-0.65009 0.28319v0.44751c0 0.14986-0.07682 0.28795-0.20516 0.36949l-0.21652 0.13798c-0.0278 0.0177-0.05112 0.0398-0.06976 0.0667l-0.42375 0.60823c-5.29e-4 0.0169-5.29e-4 0.0336-5.29e-4 0.0506 0 0.15763 0.01879 0.31152 0.05375 0.45889h0.18603c0.08462 0 0.16252 0.0417 0.20826 0.11162l0.2589 0.39532c0.0021 3e-3 0.25993 0.23462 0.25993 0.23462 0.05913 0.0528 0.08884 0.13088 0.07907 0.20877l-0.04134 0.32711c0.31016 0.18264 0.67296 0.28784 1.0604 0.28784 1.1387 0 2.0655-0.90772 2.0655-2.0236 0-0.12002-0.01095-0.2381-0.03152-0.35243l-0.05891 0.0114c-0.0011 2e-4 -0.0018 1e-3 -0.0021 2e-3l-0.02016 0.0801c-0.01654 0.0654-0.06549 0.11798-0.13023 0.14056-0.06474 0.0226-0.1357 0.012-0.19068-0.0284l-0.12144-0.0889c-7.94e-4 -5.3e-4 -0.0021-1e-3 -0.0031-5.3e-4l-0.1509 0.0775c-7.94e-4 5.3e-4 -0.0011 1e-3 -0.0011 1e-3 -2.65e-4 7.9e-4 -5.3e-4 3e-3 0 4e-3 1.5e-5 0 5.29e-4 1.8e-4 0.0016 5.3e-4l0.0072 3e-3c0.0627 0.0231 0.10966 0.0749 0.12609 0.13849 0.01643 0.0636 1.1e-5 0.13086-0.04392 0.18035l-0.09404 0.10594c-0.06627 0.0747-0.17974 0.0909-0.26458 0.0372l-0.25373-0.1602c-7.94e-4 -5.3e-4 -0.0011-1e-3 -0.0027-5.3e-4 -0.0013 5.3e-4 -0.0013 1e-3 -0.0016 2e-3l-0.01963 0.11731c-1.51e-4 1e-3 -1.9e-4 2e-3 5.29e-4 3e-3l0.13229 0.12092c0.07297 0.0669 0.08602 0.17508 0.03101 0.25683l-0.21549 0.31988c-2.65e-4 5.3e-4 -5.29e-4 1e-3 -5.29e-4 2e-3l-0.0186 0.45785c-0.0021 0.0512-0.0236 0.0995-0.06098 0.13539l-0.2868 0.27543c-0.03917 0.0376-0.09086 0.0568-0.14314 0.0568-0.03541 0-0.0713-9e-3 -0.10335-0.0274l-0.18604-0.10645c-0.04908-0.0282-0.08396-0.0758-0.09612-0.13022l-0.08578-0.38292-0.08216-0.21601c-2.65e-4 -1e-3 -0.0011-2e-3 -0.0021-2e-3l-0.37568-0.032c-0.06626-6e-3 -0.1258-0.0423-0.15916-0.0987l-0.21342-0.36122c-0.02318-0.0392-0.03219-0.0854-0.02532-0.13023l0.05374-0.34984c8e-3 -0.0521 0.03612-0.0985 0.07907-0.13023l0.32763-0.24236c0.05774-0.0427 0.1353-0.0526 0.20205-0.0253l0.31781 0.13022 0.4408 0.047c7.93e-4 8e-5 0.0016-1e-4 0.0021-5.3e-4l0.29145-0.20464c0.0011-7.9e-4 0.0016-2e-3 0.0011-4e-3l-0.02739-0.0594c-5.29e-4 -1e-3 -0.0011-2e-3 -0.0021-2e-3l-0.81907-0.0439c-0.03161-2e-3 -0.06294-0.011-0.09043-0.0264-0.07211-0.0405-0.11191-0.11874-0.10128-0.19948 0.01064-0.0807 0.06965-0.14676 0.14986-0.16794l0.24546-0.0646c5.29e-4 -1.1e-4 0.0013-7.9e-4 0.0016-1e-3l0.30075-0.27801c0.03249-0.0301 0.07491-0.0487 0.11937-0.0532l0.45217-0.046c0.0013-1.3e-4 0.0024-8e-4 0.0026-2e-3 0 0 0.11394-0.4614 0.11627-0.46664-0.1417-0.0754-0.29352-0.13526-0.45269-0.17673l-0.09043 0.10335c-0.02392 0.0273-0.0543 0.0486-0.08837 0.062l-0.23978 0.0941c-0.0042 2e-3 -0.0079 4e-3 -0.01085 8e-3l-0.3731 0.42737c-0.07409 0.0834-0.1714 0.0791-0.17466 0.0791-0.06715 0-0.13016-0.0283-0.17415-0.0785-0.04613-0.0527-0.06489-0.12204-0.05116-0.19017 0 0 0.01373-0.0513 0.02429-0.0708l0.16898-0.31213c0.0031-6e-3 0.0044-0.0123 0.0031-0.0186z" stroke-width=".26458"/>
 </g>
</svg>
