<?xml version="1.0" encoding="UTF-8"?>
<!-- Created with Inkscape (http://www.inkscape.org/) -->
<svg width="6.35mm" height="6.35mm" version="1.1" viewBox="0 0 6.35 6.35" xmlns="http://www.w3.org/2000/svg" xmlns:cc="http://creativecommons.org/ns#" xmlns:dc="http://purl.org/dc/elements/1.1/" xmlns:rdf="http://www.w3.org/1999/02/22-rdf-syntax-ns#">
 <metadata>
  <rdf:RDF>
   <cc:Work rdf:about="">
    <dc:format>image/svg+xml</dc:format>
    <dc:type rdf:resource="http://purl.org/dc/dcmitype/StillImage"/>
    <dc:title/>
   </cc:Work>
  </rdf:RDF>
 </metadata>
 <g transform="translate(-77.887 -69.12)">
  <path d="m78.356 69.12c-0.25902 0-0.46819 0.20466-0.46818 0.45734v5.4348c0 0.25294 0.20916 0.45785 0.46818 0.45785h5.411c0.25876 0 0.47078-0.20491 0.47078-0.45785v-5.4348c0-0.25233-0.21146-0.45678-0.46975-0.45734zm2.7275 0.97978c0.60544 0 1.1749 0.23106 1.603 0.65061 0.42811 0.41954 0.66404 0.97712 0.66404 1.5704 0 0.59333-0.23593 1.1514-0.66404 1.571-0.4281 0.41955-0.99757 0.65061-1.603 0.65061-0.60543 0-1.1744-0.23106-1.6025-0.65061-0.42811-0.41954-0.66404-0.97764-0.66404-1.571 0-0.59333 0.23593-1.1509 0.66404-1.5704 0.42811-0.41955 0.99705-0.65061 1.6025-0.65061zm-0.49919 0.25735c-0.23499 0.05744-0.45451 0.1543-0.65009 0.28319v0.44752c0 0.14986-0.0768 0.28794-0.20515 0.36948l-0.21653 0.13798c-0.0278 0.01767-0.0511 0.03981-0.0698 0.06666l-0.42374 0.60823c-5.29e-4 0.01693-5.29e-4 0.03362-5.29e-4 0.05064 0 0.15762 0.0188 0.31152 0.0538 0.45889h0.18603c0.0846 0 0.16252 0.04173 0.20826 0.11162l0.2589 0.39532c2e-3 0.0032 0.25993 0.23461 0.25993 0.23461 0.0591 0.05282 0.0888 0.13088 0.0791 0.20878l-0.0413 0.32711c0.31016 0.18264 0.67296 0.28784 1.0604 0.28784 1.1387 0 2.0655-0.90772 2.0655-2.0236 0-0.12002-0.011-0.2381-0.0315-0.35243l-0.0589 0.01138c-1e-3 2.09e-4 -2e-3 0.0011-2e-3 0.0021l-0.0202 0.0801c-0.0165 0.06537-0.0655 0.11798-0.13023 0.14056-0.0647 0.02259-0.1357 0.01199-0.19068-0.02842l-0.12145-0.08888c-7.94e-4 -5.29e-4 -2e-3 -0.0011-3e-3 -5.29e-4l-0.15089 0.07751c-7.94e-4 5.29e-4 -1e-3 0.0011-1e-3 0.0011-2.64e-4 7.94e-4 -5.29e-4 0.0029 0 0.0036 1e-5 0 5.3e-4 1.77e-4 2e-3 5.29e-4l7e-3 0.0026c0.0627 0.02307 0.10965 0.07491 0.12609 0.13849 0.0164 0.06359 1e-5 0.13086-0.0439 0.18035l-0.094 0.10594c-0.0663 0.07468-0.17975 0.09086-0.26459 0.03721l-0.2537-0.1602c-7.93e-4 -5.29e-4 -1e-3 -0.0011-3e-3 -5.29e-4 -1e-3 5.29e-4 -1e-3 0.0011-2e-3 0.0021l-0.0196 0.11731c-1.6e-4 0.0011-2e-4 0.0019 5.29e-4 0.0027l0.1323 0.12092c0.073 0.0669 0.086 0.17508 0.031 0.25683l-0.21549 0.31988c-2.65e-4 5.29e-4 -5.29e-4 0.0011-5.29e-4 0.0016l-0.0186 0.45785c-2e-3 0.05121-0.0236 0.0995-0.061 0.13539l-0.28681 0.27544c-0.0392 0.03761-0.0909 0.05684-0.14314 0.05684-0.0354 0-0.0713-9e-3 -0.10335-0.02739l-0.18608-0.10646c-0.0491-0.02819-0.084-0.07577-0.0961-0.13023l-0.0858-0.38292-0.0822-0.21601c-2.6e-4 -0.0011-1e-3 -0.0019-2e-3 -0.0021l-0.37566-0.03202c-0.0663-0.0057-0.12581-0.04232-0.15917-0.0987l-0.21344-0.36122c-0.0232-0.03919-0.0322-0.08541-0.0253-0.13022l0.0537-0.34985c8e-3 -0.05214 0.0361-0.09847 0.0791-0.13022l0.32763-0.24236c0.0577-0.04268 0.1353-0.05263 0.20205-0.02532l0.31781 0.13022 0.4408 0.04703c7.94e-4 7.7e-5 2e-3 -1.03e-4 2e-3 -5.29e-4l0.29148-0.20464c1e-3 -7.93e-4 2e-3 -0.0024 1e-3 -0.0036l-0.0274-0.05943c-5.29e-4 -0.0011-1e-3 -0.0016-2e-3 -0.0016l-0.81907-0.04392c-0.0316-0.0016-0.0629-0.01095-0.0904-0.02635-0.0721-0.04045-0.11191-0.11873-0.10128-0.19947 0.0106-0.08074 0.0696-0.14677 0.14986-0.16795l0.24546-0.06459c5.29e-4 -1.14e-4 1e-3 -7.94e-4 2e-3 -0.0011l0.30068-0.27802c0.0325-0.03006 0.0749-0.04873 0.11938-0.05323l0.45214-0.046c1e-3 -1.22e-4 2e-3 -7.94e-4 3e-3 -0.0021 0 0 0.11394-0.4614 0.11627-0.46664-0.14169-0.07545-0.29351-0.13526-0.45268-0.17673l-0.0904 0.10335c-0.0239 0.02726-0.0543 0.04862-0.0884 0.06201l-0.23978 0.09405c-4e-3 0.0016-8e-3 0.0044-0.0108 0.0078l-0.3731 0.42737c-0.0741 0.08343-0.1714 0.07906-0.17467 0.07906-0.0671 0-0.13016-0.02827-0.17415-0.07855-0.0461-0.05272-0.0649-0.12204-0.0512-0.19017 0 0 0.0137-0.05132 0.0243-0.0708l0.16898-0.31213c3e-3 -0.0057 4e-3 -0.0123 3e-3 -0.0186z" fill="#4169e1" stroke-width=".26458"/>
 </g>
</svg>
