<?xml version="1.0" encoding="UTF-8"?>
<!-- Created with Inkscape (http://www.inkscape.org/) -->
<svg width="7.4032mm" height="7.4032mm" version="1.1" viewBox="0 0 7.4032 7.4032" xmlns="http://www.w3.org/2000/svg" xmlns:cc="http://creativecommons.org/ns#" xmlns:dc="http://purl.org/dc/elements/1.1/" xmlns:rdf="http://www.w3.org/1999/02/22-rdf-syntax-ns#">
 <metadata>
  <rdf:RDF>
   <cc:Work rdf:about="">
    <dc:format>image/svg+xml</dc:format>
    <dc:type rdf:resource="http://purl.org/dc/dcmitype/StillImage"/>
    <dc:title/>
   </cc:Work>
  </rdf:RDF>
 </metadata>
 <g transform="translate(-61.31 -88.435)">
  <path d="m61.857 88.435c-0.30198 0-0.54622 0.23872-0.54622 0.5333v6.3366c0 0.29489 0.24424 0.5333 0.54622 0.5333h2.1291s0.38618-1.5855 0.30179-1.6671c-0.0723-0.06985-1.2131 0.11341-1.2754 0.04289-0.0929-0.1051-0.0148-1.0154-0.13695-1.1017-0.10319-0.07292-0.78417 0.03008-0.69453-0.16381 0.64667-1.3987 0.70168-1.1783 0.69453-1.4624-0.0319-1.2671 1.0633-2.2789 2.3306-2.2593 0.0171 2.65e-4 0.0341 9e-4 0.0512 0.0016 1.2666 0.04879 2.2538 1.1152 2.205 2.3818-0.0189 0.48964-0.55214 1.098-0.49971 1.3431l0.83716 2.8851h0.36587c0.30168 0 0.54829-0.23841 0.54829-0.5333v-6.3366c0-0.29424-0.24605-0.53275-0.54726-0.5333z" stroke-width=".26458"/>
 </g>
</svg>
