<?xml version="1.0" encoding="iso-8859-1"?>
<!-- Generator: Adobe Illustrator 19.0.0, SVG Export Plug-In . SVG Version: 6.00 Build 0)  -->
<svg version="1.1" id="Capa_1" xmlns="http://www.w3.org/2000/svg" xmlns:xlink="http://www.w3.org/1999/xlink" x="0px" y="0px"
	 viewBox="0 0 496.149 496.149" style="enable-background:new 0 0 496.149 496.149;" xml:space="preserve">
<g>
	<g>
		<path d="M282.476,0.149c-1.551-0.059-3.102-0.1-4.654-0.124C162.961-1.748,68.41,89.928,66.636,204.789l-52.96,123.52l52.96,23.84
			v112l128-16v48h32v-80l-128,16v-101.12l-44.64-19.04l43.04-100.48v-3.36c0.433-48.048,20.491-93.83,55.52-126.72
			c34.04-34.217,80.541-53.106,128.8-52.32c91.863,5.508,165.324,78.42,171.52,170.24c1.747,45.326-14.073,89.576-44.16,123.52
			l-4.96,5.92l32,165.6l29.76-5.92l-28.48-150.72c27.703-34.708,43.57-77.372,45.279-121.748
			C486.738,101.212,397.267,4.571,282.476,0.149z"/>
	</g>
</g>
<g>
</g>
<g>
</g>
<g>
</g>
<g>
</g>
<g>
</g>
<g>
</g>
<g>
</g>
<g>
</g>
<g>
</g>
<g>
</g>
<g>
</g>
<g>
</g>
<g>
</g>
<g>
</g>
<g>
</g>
</svg>
