<?xml version="1.0" encoding="UTF-8"?>
<!-- Generator: Adobe Illustrator 19.0.0, SVG Export Plug-In . SVG Version: 6.00 Build 0)  -->
<svg enable-background="new 0 0 496.149 496.149" version="1.1" viewBox="0 0 496.15 496.15" xml:space="preserve" xmlns="http://www.w3.org/2000/svg" xmlns:cc="http://creativecommons.org/ns#" xmlns:dc="http://purl.org/dc/elements/1.1/" xmlns:rdf="http://www.w3.org/1999/02/22-rdf-syntax-ns#"><metadata><rdf:RDF><cc:Work rdf:about=""><dc:format>image/svg+xml</dc:format><dc:type rdf:resource="http://purl.org/dc/dcmitype/StillImage"/><dc:title/></cc:Work></rdf:RDF></metadata>
<g fill="#fff">
	<g fill="#fff">
		<path d="m282.48 0.149c-1.551-0.059-3.102-0.1-4.654-0.124-114.86-1.773-209.41 89.903-211.19 204.76l-52.96 123.52 52.96 23.84v112l128-16v48h32v-80l-128 16v-101.12l-44.64-19.04 43.04-100.48v-3.36c0.433-48.048 20.491-93.83 55.52-126.72 34.04-34.217 80.541-53.106 128.8-52.32 91.863 5.508 165.32 78.42 171.52 170.24 1.747 45.326-14.073 89.576-44.16 123.52l-4.96 5.92 32 165.6 29.76-5.92-28.48-150.72c27.703-34.708 43.57-77.372 45.279-121.75 4.423-114.79-85.048-211.43-199.84-215.85z" fill="#fff"/>
	</g>
</g>















</svg>
