<?xml version="1.0" encoding="UTF-8" standalone="no"?>
<!-- Created with Inkscape (http://www.inkscape.org/) -->

<svg
   width="7.9375mm"
   height="7.9375mm"
   viewBox="0 0 7.9375 7.9374997"
   version="1.1"
   id="svg5"
   xmlns="http://www.w3.org/2000/svg"
   xmlns:svg="http://www.w3.org/2000/svg">
  <defs
     id="defs2">
    <linearGradient
       id="linearGradient29190">
      <stop
         style="stop-color:#ffffff;stop-opacity:1;"
         offset="0"
         id="stop29188" />
    </linearGradient>
    <marker
       style="overflow:visible"
       id="TriangleOutM"
       refX="0"
       refY="0"
       orient="auto">
      <path
         transform="scale(0.4)"
         style="fill:context-stroke;fill-rule:evenodd;stroke:context-stroke;stroke-width:1pt"
         d="M 5.77,0 -2.88,5 V -5 Z"
         id="path3587" />
    </marker>
    <marker
       style="overflow:visible"
       id="marker17766"
       refX="0"
       refY="0"
       orient="auto">
      <path
         transform="matrix(-0.3,0,0,-0.3,0.69,0)"
         d="M 8.7185878,4.0337352 -2.2072895,0.01601326 8.7185884,-4.0017078 c -1.7454984,2.3720609 -1.7354408,5.6174519 -6e-7,8.035443 z"
         style="fill:context-stroke;fill-rule:evenodd;stroke:context-stroke;stroke-width:0.625;stroke-linejoin:round"
         id="path17764" />
    </marker>
    <marker
       style="overflow:visible"
       id="Arrow1Send"
       refX="0"
       refY="0"
       orient="auto">
      <path
         transform="matrix(-0.2,0,0,-0.2,-1.2,0)"
         style="fill:context-stroke;fill-rule:evenodd;stroke:context-stroke;stroke-width:1pt"
         d="M 0,0 5,-5 -12.5,0 5,5 Z"
         id="path3457" />
    </marker>
    <marker
       style="overflow:visible"
       id="marker17754"
       refX="0"
       refY="0"
       orient="auto">
      <path
         transform="matrix(-0.3,0,0,-0.3,0.69,0)"
         d="M 8.7185878,4.0337352 -2.2072895,0.01601326 8.7185884,-4.0017078 c -1.7454984,2.3720609 -1.7354408,5.6174519 -6e-7,8.035443 z"
         style="fill:context-stroke;fill-rule:evenodd;stroke:context-stroke;stroke-width:0.625;stroke-linejoin:round"
         id="path17752" />
    </marker>
    <marker
       style="overflow:visible"
       id="Arrow2Send"
       refX="0"
       refY="0"
       orient="auto">
      <path
         transform="matrix(-0.3,0,0,-0.3,0.69,0)"
         d="M 8.7185878,4.0337352 -2.2072895,0.01601326 8.7185884,-4.0017078 c -1.7454984,2.3720609 -1.7354408,5.6174519 -6e-7,8.035443 z"
         style="fill:context-stroke;fill-rule:evenodd;stroke:context-stroke;stroke-width:0.625;stroke-linejoin:round"
         id="path3475" />
    </marker>
    <marker
       style="overflow:visible"
       id="EmptyTriangleOutM"
       refX="0"
       refY="0"
       orient="auto">
      <path
         transform="matrix(0.4,0,0,0.4,-1.8,0)"
         style="fill:context-fill;fill-rule:evenodd;stroke:context-stroke;stroke-width:1pt"
         d="M 5.77,0 -2.88,5 V -5 Z"
         id="path3605" />
    </marker>
    <marker
       style="overflow:visible"
       id="EmptyTriangleOutM-8"
       refX="0"
       refY="0"
       orient="auto">
      <path
         transform="matrix(0.4,0,0,0.4,-1.8,0)"
         style="fill:context-fill;fill-rule:evenodd;stroke:context-stroke;stroke-width:1pt"
         d="M 5.77,0 -2.88,5 V -5 Z"
         id="path3605-8" />
    </marker>
    <marker
       style="overflow:visible"
       id="EmptyTriangleOutM-8-3"
       refX="0"
       refY="0"
       orient="auto">
      <path
         transform="matrix(0.4,0,0,0.4,-1.8,0)"
         style="fill:context-fill;fill-rule:evenodd;stroke:context-stroke;stroke-width:1pt"
         d="M 5.77,0 -2.88,5 V -5 Z"
         id="path3605-8-2" />
    </marker>
    <marker
       style="overflow:visible"
       id="EmptyTriangleOutM-81"
       refX="0"
       refY="0"
       orient="auto">
      <path
         transform="matrix(0.4,0,0,0.4,-1.8,0)"
         style="fill:context-fill;fill-rule:evenodd;stroke:context-stroke;stroke-width:1pt"
         d="M 5.77,0 -2.88,5 V -5 Z"
         id="path3605-9" />
    </marker>
    <marker
       style="overflow:visible"
       id="EmptyTriangleOutM-6"
       refX="0"
       refY="0"
       orient="auto">
      <path
         transform="matrix(0.4,0,0,0.4,-1.8,0)"
         style="fill:context-fill;fill-rule:evenodd;stroke:context-stroke;stroke-width:1pt"
         d="M 5.77,0 -2.88,5 V -5 Z"
         id="path3605-4" />
    </marker>
    <marker
       style="overflow:visible"
       id="EmptyTriangleOutM-87"
       refX="0"
       refY="0"
       orient="auto">
      <path
         transform="matrix(0.4,0,0,0.4,-1.8,0)"
         style="fill:context-fill;fill-rule:evenodd;stroke:context-stroke;stroke-width:1pt"
         d="M 5.77,0 -2.88,5 V -5 Z"
         id="path3605-99" />
    </marker>
    <marker
       style="overflow:visible"
       id="EmptyTriangleOutM-2"
       refX="0"
       refY="0"
       orient="auto">
      <path
         transform="matrix(0.4,0,0,0.4,-1.8,0)"
         style="fill:context-fill;fill-rule:evenodd;stroke:context-stroke;stroke-width:1pt"
         d="M 5.77,0 -2.88,5 V -5 Z"
         id="path3605-84" />
    </marker>
    <marker
       style="overflow:visible"
       id="EmptyTriangleOutM-7"
       refX="0"
       refY="0"
       orient="auto">
      <path
         transform="matrix(0.4,0,0,0.4,-1.8,0)"
         style="fill:context-fill;fill-rule:evenodd;stroke:context-stroke;stroke-width:1pt"
         d="M 5.77,0 -2.88,5 V -5 Z"
         id="path3605-7" />
    </marker>
    <marker
       style="overflow:visible"
       id="EmptyTriangleOutM-7-0"
       refX="0"
       refY="0"
       orient="auto">
      <path
         transform="matrix(0.4,0,0,0.4,-1.8,0)"
         style="fill:context-fill;fill-rule:evenodd;stroke:context-stroke;stroke-width:1pt"
         d="M 5.77,0 -2.88,5 V -5 Z"
         id="path3605-7-9" />
    </marker>
    <marker
       style="overflow:visible"
       id="EmptyTriangleOutM-7-7"
       refX="0"
       refY="0"
       orient="auto">
      <path
         transform="matrix(0.4,0,0,0.4,-1.8,0)"
         style="fill:context-fill;fill-rule:evenodd;stroke:context-stroke;stroke-width:1pt"
         d="M 5.77,0 -2.88,5 V -5 Z"
         id="path3605-7-0" />
    </marker>
    <marker
       style="overflow:visible"
       id="EmptyTriangleOutM-7-7-2"
       refX="0"
       refY="0"
       orient="auto">
      <path
         transform="matrix(0.4,0,0,0.4,-1.8,0)"
         style="fill:context-fill;fill-rule:evenodd;stroke:context-stroke;stroke-width:1pt"
         d="M 5.77,0 -2.88,5 V -5 Z"
         id="path3605-7-0-2" />
    </marker>
    <marker
       style="overflow:visible"
       id="EmptyTriangleOutM-7-7-2-7"
       refX="0"
       refY="0"
       orient="auto">
      <path
         transform="matrix(0.4,0,0,0.4,-1.8,0)"
         style="fill:context-fill;fill-rule:evenodd;stroke:context-stroke;stroke-width:1pt"
         d="M 5.77,0 -2.88,5 V -5 Z"
         id="path3605-7-0-2-9" />
    </marker>
    <marker
       style="overflow:visible"
       id="EmptyTriangleOutM-2-9"
       refX="0"
       refY="0"
       orient="auto">
      <path
         transform="matrix(0.4,0,0,0.4,-1.8,0)"
         style="fill:context-fill;fill-rule:evenodd;stroke:context-stroke;stroke-width:1pt"
         d="M 5.77,0 -2.88,5 V -5 Z"
         id="path3605-84-4" />
    </marker>
    <marker
       style="overflow:visible"
       id="TriangleOutM-6"
       refX="0"
       refY="0"
       orient="auto">
      <path
         transform="scale(0.4)"
         style="fill:context-stroke;fill-rule:evenodd;stroke:context-stroke;stroke-width:1pt"
         d="M 5.77,0 -2.88,5 V -5 Z"
         id="path3587-4" />
    </marker>
    <marker
       style="overflow:visible"
       id="TriangleOutM-2"
       refX="0"
       refY="0"
       orient="auto">
      <path
         transform="scale(0.4)"
         style="fill:context-stroke;fill-rule:evenodd;stroke:context-stroke;stroke-width:1pt"
         d="M 5.77,0 -2.88,5 V -5 Z"
         id="path3587-3" />
    </marker>
    <marker
       style="overflow:visible"
       id="TriangleOutM-7"
       refX="0"
       refY="0"
       orient="auto">
      <path
         transform="scale(0.4)"
         style="fill:context-stroke;fill-rule:evenodd;stroke:context-stroke;stroke-width:1pt"
         d="M 5.77,0 -2.88,5 V -5 Z"
         id="path3587-2" />
    </marker>
    <marker
       style="overflow:visible"
       id="TriangleOutM-1"
       refX="0"
       refY="0"
       orient="auto">
      <path
         transform="scale(0.4)"
         style="fill:context-stroke;fill-rule:evenodd;stroke:context-stroke;stroke-width:1pt"
         d="M 5.77,0 -2.88,5 V -5 Z"
         id="path3587-1" />
    </marker>
    <marker
       style="overflow:visible"
       id="TriangleOutM-25"
       refX="0"
       refY="0"
       orient="auto">
      <path
         transform="scale(0.4)"
         style="fill:context-stroke;fill-rule:evenodd;stroke:context-stroke;stroke-width:1pt"
         d="M 5.77,0 -2.88,5 V -5 Z"
         id="path3587-9" />
    </marker>
    <marker
       style="overflow:visible"
       id="TriangleOutM-9"
       refX="0"
       refY="0"
       orient="auto">
      <path
         transform="scale(0.4)"
         style="fill:context-stroke;fill-rule:evenodd;stroke:context-stroke;stroke-width:1pt"
         d="M 5.77,0 -2.88,5 V -5 Z"
         id="path3587-19" />
    </marker>
    <marker
       style="overflow:visible"
       id="TriangleOutM-93"
       refX="0"
       refY="0"
       orient="auto">
      <path
         transform="scale(0.4)"
         style="fill:context-stroke;fill-rule:evenodd;stroke:context-stroke;stroke-width:1pt"
         d="M 5.77,0 -2.88,5 V -5 Z"
         id="path3587-6" />
    </marker>
    <marker
       style="overflow:visible"
       id="TriangleOutM-8"
       refX="0"
       refY="0"
       orient="auto">
      <path
         transform="scale(0.4)"
         style="fill:context-stroke;fill-rule:evenodd;stroke:context-stroke;stroke-width:1pt"
         d="M 5.77,0 -2.88,5 V -5 Z"
         id="path3587-31" />
    </marker>
    <marker
       style="overflow:visible"
       id="TriangleOutM-71"
       refX="0"
       refY="0"
       orient="auto">
      <path
         transform="scale(0.4)"
         style="fill:context-stroke;fill-rule:evenodd;stroke:context-stroke;stroke-width:1pt"
         d="M 5.77,0 -2.88,5 V -5 Z"
         id="path3587-7" />
    </marker>
    <marker
       style="overflow:visible"
       id="TriangleOutM-6-5"
       refX="0"
       refY="0"
       orient="auto">
      <path
         transform="scale(0.4)"
         style="fill:context-stroke;fill-rule:evenodd;stroke:context-stroke;stroke-width:1pt"
         d="M 5.77,0 -2.88,5 V -5 Z"
         id="path3587-4-5" />
    </marker>
    <marker
       style="overflow:visible"
       id="TriangleOutM-2-9"
       refX="0"
       refY="0"
       orient="auto">
      <path
         transform="scale(0.4)"
         style="fill:context-stroke;fill-rule:evenodd;stroke:context-stroke;stroke-width:1pt"
         d="M 5.77,0 -2.88,5 V -5 Z"
         id="path3587-3-5" />
    </marker>
    <marker
       style="overflow:visible"
       id="TriangleOutM-7-9"
       refX="0"
       refY="0"
       orient="auto">
      <path
         transform="scale(0.4)"
         style="fill:context-stroke;fill-rule:evenodd;stroke:context-stroke;stroke-width:1pt"
         d="M 5.77,0 -2.88,5 V -5 Z"
         id="path3587-2-5" />
    </marker>
    <marker
       style="overflow:visible"
       id="TriangleOutM-1-7"
       refX="0"
       refY="0"
       orient="auto">
      <path
         transform="scale(0.4)"
         style="fill:context-stroke;fill-rule:evenodd;stroke:context-stroke;stroke-width:1pt"
         d="M 5.77,0 -2.88,5 V -5 Z"
         id="path3587-1-7" />
    </marker>
    <marker
       style="overflow:visible"
       id="TriangleOutM-25-6"
       refX="0"
       refY="0"
       orient="auto">
      <path
         transform="scale(0.4)"
         style="fill:context-stroke;fill-rule:evenodd;stroke:context-stroke;stroke-width:1pt"
         d="M 5.77,0 -2.88,5 V -5 Z"
         id="path3587-9-8" />
    </marker>
    <marker
       style="overflow:visible"
       id="TriangleOutM-9-9"
       refX="0"
       refY="0"
       orient="auto">
      <path
         transform="scale(0.4)"
         style="fill:context-stroke;fill-rule:evenodd;stroke:context-stroke;stroke-width:1pt"
         d="M 5.77,0 -2.88,5 V -5 Z"
         id="path3587-19-3" />
    </marker>
    <marker
       style="overflow:visible"
       id="TriangleOutM-93-0"
       refX="0"
       refY="0"
       orient="auto">
      <path
         transform="scale(0.4)"
         style="fill:context-stroke;fill-rule:evenodd;stroke:context-stroke;stroke-width:1pt"
         d="M 5.77,0 -2.88,5 V -5 Z"
         id="path3587-6-8" />
    </marker>
  </defs>
  <g
     id="layer1"
     transform="translate(-46.290205,-54.069102)" />
  <g
     id="layer2"
     transform="translate(-46.290205,-54.069102)">
    <text
       xml:space="preserve"
       style="font-style:normal;font-weight:normal;font-size:10.5833px;line-height:1.25;font-family:sans-serif;fill:#000000;fill-opacity:1;stroke:none;stroke-width:0.264583"
       x="138.90625"
       y="190.49998"
       id="text8617"><tspan
         id="tspan8615"
         style="stroke-width:0.264583"
         x="138.90625"
         y="190.49998" /></text>
    <path
       id="path14455-1-5-3"
       style="font-size:10.5833px;line-height:1.25;fill:#ffffff;fill-opacity:1;stroke-width:0.2;stroke-linecap:round;stroke-linejoin:round;paint-order:fill markers stroke"
       d="m 50.258955,54.069102 c -2.19188,0 -3.96875,1.77687 -3.96875,3.96875 0,2.19188 1.77687,3.96875 3.96875,3.96875 2.19188,0 3.96875,-1.77687 3.96875,-3.96875 0,-2.19188 -1.77687,-3.96875 -3.96875,-3.96875 z m 0.01809,1.276408 c 0.186034,0 0.345829,0.06201 0.479041,0.186034 0.13321,0.124026 0.199988,0.273484 0.199988,0.448035 0,0.174551 -0.0681,0.323495 -0.203607,0.447519 -0.13321,0.121727 -0.291685,0.182935 -0.475422,0.182935 -0.186037,0 -0.346633,-0.06121 -0.482142,-0.182935 -0.13321,-0.124024 -0.199988,-0.272968 -0.199988,-0.447519 0,-0.174551 0.06678,-0.324009 0.199988,-0.448035 0.135509,-0.124023 0.296105,-0.186034 0.482142,-0.186034 z m 0.606682,1.874303 0.05167,0.05168 v 2.735233 c 0,0.08039 0.01723,0.149286 0.05168,0.206706 0.03445,0.05512 0.08349,0.09646 0.147796,0.124023 0.04593,0.02067 0.0968,0.03922 0.151929,0.05529 0.05512,0.01608 0.112366,0.02774 0.172083,0.03462 v 0.251148 H 49.281753 V 60.42737 c 0.05971,-0.0046 0.11828,-0.01069 0.1757,-0.01757 0.05742,-0.0069 0.106455,-0.01803 0.147796,-0.03411 0.07349,-0.02756 0.125172,-0.06677 0.155027,-0.117305 0.02986,-0.05283 0.04496,-0.12173 0.04496,-0.206706 v -2.005047 c 0,-0.08039 -0.01855,-0.150609 -0.0553,-0.210322 -0.03675,-0.06201 -0.08234,-0.111049 -0.137459,-0.147794 -0.04134,-0.02756 -0.104672,-0.05432 -0.189654,-0.07958 -0.08268,-0.02527 -0.158472,-0.04118 -0.227375,-0.04806 v -0.251667 z" />
  </g>
</svg>
