<?xml version="1.0" encoding="UTF-8" standalone="no"?>
<!-- Created with Inkscape (http://www.inkscape.org/) -->

<svg
   xmlns:dc="http://purl.org/dc/elements/1.1/"
   xmlns:cc="http://creativecommons.org/ns#"
   xmlns:rdf="http://www.w3.org/1999/02/22-rdf-syntax-ns#"
   xmlns:svg="http://www.w3.org/2000/svg"
   xmlns="http://www.w3.org/2000/svg"
   xmlns:sodipodi="http://sodipodi.sourceforge.net/DTD/sodipodi-0.dtd"
   xmlns:inkscape="http://www.inkscape.org/namespaces/inkscape"
   width="6.3499999mm"
   height="6.3499999mm"
   viewBox="0 0 6.3499999 6.3499999"
   version="1.1"
   id="svg2336"
   inkscape:version="0.92.4 (5da689c313, 2019-01-14)"
   sodipodi:docname="itchdotio_box.svg">
  <defs
     id="defs2330" />
  <sodipodi:namedview
     id="base"
     pagecolor="#ffffff"
     bordercolor="#666666"
     borderopacity="1.0"
     inkscape:pageopacity="0.0"
     inkscape:pageshadow="2"
     inkscape:zoom="22.4"
     inkscape:cx="17.865762"
     inkscape:cy="9.4910558"
     inkscape:document-units="mm"
     inkscape:current-layer="layer1"
     showgrid="false"
     inkscape:window-width="1920"
     inkscape:window-height="1001"
     inkscape:window-x="-9"
     inkscape:window-y="-9"
     inkscape:window-maximized="1" />
  <metadata
     id="metadata2333">
    <rdf:RDF>
      <cc:Work
         rdf:about="">
        <dc:format>image/svg+xml</dc:format>
        <dc:type
           rdf:resource="http://purl.org/dc/dcmitype/StillImage" />
        <dc:title></dc:title>
      </cc:Work>
    </rdf:RDF>
  </metadata>
  <g
     inkscape:label="Layer 1"
     inkscape:groupmode="layer"
     id="layer1"
     transform="translate(-78.541087,-84.90811)">
    <path
       inkscape:connector-curvature="0"
       style="stroke-width:0.26458332"
       d="m 79.009275,84.90811 c -0.259019,0 -0.468188,0.20466 -0.468188,0.457338 v 5.435327 c 0,0.252939 0.209169,0.457335 0.468188,0.457335 h 5.411039 c 0.25876,0 0.470773,-0.204396 0.470773,-0.457335 v -5.435327 c 0,-0.252336 -0.211455,-0.456785 -0.469739,-0.457338 z m 2.754355,1.243854 c 0.631568,-1.83e-4 1.055471,0.0034 1.666565,0.02479 0.196872,0.116848 0.584378,0.562044 0.588077,0.678514 v 0.193786 c 0,0.243771 -0.227942,0.45797 -0.4346,0.459404 0.02225,0.210751 0.08845,0.550648 0.09147,0.692465 v 5.29e-4 l 0.0011,0.219625 c -0.0038,0.438454 0.04343,1.420707 -0.193268,1.661914 -0.366694,0.08529 -1.04154,0.12454 -1.71876,0.12454 -0.677217,-1.88e-4 -1.352063,-0.03925 -1.718757,-0.12454 -0.236709,-0.241583 -0.190087,-1.223976 -0.193786,-1.662432 l 0.0011,-0.219107 v -0.0011 c 0.0029,-0.140819 0.01318,-0.486796 0.03204,-0.698664 -0.18878,-0.03664 -0.375171,-0.232018 -0.375171,-0.452686 v -0.193786 c 0.0038,-0.116845 0.390827,-0.561665 0.588076,-0.678513 0.173768,-0.015 1.034482,-0.02479 1.66605,-0.02479 z m -0.864547,1.420066 c -0.07045,0 -0.351978,2.2e-4 -0.548288,0.551389 l -0.210839,0.756542 c -0.156297,0.562631 0.05011,0.576432 0.307475,0.577225 0.381535,-0.01429 0.592728,-0.291353 0.592728,-0.568441 0.21115,0.03457 0.457369,0.05168 0.703834,0.05168 0.246464,-1.79e-4 0.493201,-0.01712 0.70435,-0.05168 0,0.277088 0.211383,0.553844 0.592727,0.567926 0.257373,-2.65e-4 0.46377,-0.01408 0.307475,-0.57671 L 83.137706,88.123419 C 82.941587,87.57225 82.659533,87.57203 82.588902,87.57203 c -0.149156,5.29e-4 -0.281453,2.65e-4 -0.445449,0.179319 -0.129059,-0.01349 -0.264205,-0.02016 -0.39946,-0.02016 -0.13507,-1.99e-4 -0.269883,0.0066 -0.398942,0.02016 -0.163996,-0.179028 -0.296624,-0.178948 -0.445968,-0.179319 z"
       id="path983-2-6-1-6" />
  </g>
</svg>
