<?xml version="1.0" encoding="UTF-8"?>
<!-- Created with Inkscape (http://www.inkscape.org/) -->
<svg width="6.35mm" height="6.35mm" version="1.1" viewBox="0 0 6.35 6.35" xmlns="http://www.w3.org/2000/svg" xmlns:cc="http://creativecommons.org/ns#" xmlns:dc="http://purl.org/dc/elements/1.1/" xmlns:rdf="http://www.w3.org/1999/02/22-rdf-syntax-ns#">
 <metadata>
  <rdf:RDF>
   <cc:Work rdf:about="">
    <dc:format>image/svg+xml</dc:format>
    <dc:type rdf:resource="http://purl.org/dc/dcmitype/StillImage"/>
    <dc:title/>
   </cc:Work>
  </rdf:RDF>
 </metadata>
 <g transform="translate(-73.514 -72.557)">
  <path d="m73.983 72.557c-0.25902 0-0.46819 0.20466-0.46819 0.45734v5.4353c0 0.25294 0.20917 0.45734 0.46819 0.45734h5.411c0.25876 0 0.47077-0.2044 0.47077-0.45734v-5.4353c0-0.25234-0.21146-0.45678-0.46974-0.45734zm2.7544 1.2439c0.63157-1.83e-4 1.0555 0.0034 1.6666 0.02479 0.19687 0.11685 0.58438 0.56204 0.58808 0.67851v0.19379c0 0.24377-0.22794 0.45797-0.4346 0.4594 0.02225 0.21075 0.08845 0.55065 0.09147 0.69246v5.29e-4l0.0011 0.21963c-0.0038 0.43845 0.04343 1.4207-0.19327 1.6619-0.36669 0.08529-1.0415 0.12454-1.7188 0.12454-0.67726-1.88e-4 -1.3521-0.03925-1.7188-0.12454-0.23671-0.24158-0.19009-1.224-0.19379-1.6624l0.0011-0.21911v-0.0011c0.0029-0.14081 0.01317-0.48678 0.03203-0.69865-0.18882-0.03664-0.37521-0.23202-0.37521-0.45268v-0.19379c0.0038-0.11684 0.39083-0.56166 0.58808-0.67851 0.17377-0.015 1.0345-0.02479 1.666-0.02479zm-0.86455 1.4201c-0.07044 0-0.35198 2.2e-4 -0.54829 0.55139l-0.21084 0.75654c-0.1563 0.56263 0.05011 0.57643 0.30748 0.57723 0.38153-0.01429 0.59273-0.29135 0.59273-0.56844 0.21115 0.03457 0.45737 0.05168 0.70383 0.05168 0.24646-1.8e-4 0.4932-0.01712 0.70435-0.05168 0 0.27709 0.21138 0.55384 0.59273 0.56793 0.25737-2.64e-4 0.46377-0.01408 0.30748-0.57671l-0.21084-0.75654c-0.19612-0.55117-0.47817-0.55139-0.5488-0.55139-0.14916 5.29e-4 -0.28145 2.65e-4 -0.44545 0.17932-0.12906-0.01349-0.2642-0.02016-0.39946-0.02016-0.13507-1.99e-4 -0.26988 0.0066-0.39894 0.02016-0.164-0.17903-0.29662-0.17895-0.44597-0.17932z" fill="#4169e1" stroke-width=".26458"/>
 </g>
</svg>
