<?xml version="1.0" encoding="UTF-8"?>
<!-- Created with Inkscape (http://www.inkscape.org/) -->
<svg width="6.35mm" height="6.35mm" version="1.1" viewBox="0 0 6.35 6.35" xmlns="http://www.w3.org/2000/svg" xmlns:cc="http://creativecommons.org/ns#" xmlns:dc="http://purl.org/dc/elements/1.1/" xmlns:rdf="http://www.w3.org/1999/02/22-rdf-syntax-ns#">
 <metadata>
  <rdf:RDF>
   <cc:Work rdf:about="">
    <dc:format>image/svg+xml</dc:format>
    <dc:type rdf:resource="http://purl.org/dc/dcmitype/StillImage"/>
    <dc:title/>
   </cc:Work>
  </rdf:RDF>
 </metadata>
 <g transform="translate(-75.45 -71.825)">
  <path d="m80.86 77.236h-0.94033v-1.4735c0-0.35137-7e-3 -0.80354-0.49001-0.80354-0.49027 0-0.56515 0.38232-0.56515 0.77761v1.4994h-0.94033v-3.03h0.90329v0.41301h0.0122c0.12621-0.23812 0.43312-0.48948 0.89165-0.48948 0.95276 0 1.129 0.62706 1.129 1.4433v1.6632zm-3.9978-3.4446c-0.3027 0-0.54585-0.245-0.54585-0.54636 0-0.3011 0.24342-0.54584 0.54585-0.54584 0.30162 0 0.5461 0.24474 0.5461 0.54584 0 0.30136-0.24475 0.54636-0.5461 0.54636zm0.47149 3.4446h-0.94299v-3.03h0.94299zm3.9968-5.4113h-5.4118c-0.25902 0-0.46857 0.20479-0.46857 0.45746v5.4351c0 0.25294 0.20955 0.45746 0.46857 0.45746h5.411c0.25876 0 0.47043-0.20452 0.47043-0.45746v-5.4351c0-0.25268-0.21167-0.45746-0.47043-0.45746z" fill="#4169e1" stroke-width=".26458"/>
 </g>
</svg>
