<?xml version="1.0" encoding="UTF-8" standalone="no"?>
<!-- Created with Inkscape (http://www.inkscape.org/) -->

<svg
   xmlns:dc="http://purl.org/dc/elements/1.1/"
   xmlns:cc="http://creativecommons.org/ns#"
   xmlns:rdf="http://www.w3.org/1999/02/22-rdf-syntax-ns#"
   xmlns:svg="http://www.w3.org/2000/svg"
   xmlns="http://www.w3.org/2000/svg"
   xmlns:sodipodi="http://sodipodi.sourceforge.net/DTD/sodipodi-0.dtd"
   xmlns:inkscape="http://www.inkscape.org/namespaces/inkscape"
   width="6.3499999mm"
   height="6.3499999mm"
   viewBox="0 0 6.3499999 6.3499999"
   version="1.1"
   id="svg4042"
   inkscape:version="0.92.4 (5da689c313, 2019-01-14)"
   sodipodi:docname="linkedin_box.svg">
  <defs
     id="defs4036" />
  <sodipodi:namedview
     id="base"
     pagecolor="#ffffff"
     bordercolor="#666666"
     borderopacity="1.0"
     inkscape:pageopacity="0.0"
     inkscape:pageshadow="2"
     inkscape:zoom="11.2"
     inkscape:cx="1.9760214"
     inkscape:cy="28.557597"
     inkscape:document-units="mm"
     inkscape:current-layer="layer1"
     showgrid="false"
     inkscape:window-width="1920"
     inkscape:window-height="1001"
     inkscape:window-x="-9"
     inkscape:window-y="-9"
     inkscape:window-maximized="1" />
  <metadata
     id="metadata4039">
    <rdf:RDF>
      <cc:Work
         rdf:about="">
        <dc:format>image/svg+xml</dc:format>
        <dc:type
           rdf:resource="http://purl.org/dc/dcmitype/StillImage" />
        <dc:title></dc:title>
      </cc:Work>
    </rdf:RDF>
  </metadata>
  <g
     inkscape:label="Layer 1"
     inkscape:groupmode="layer"
     id="layer1"
     transform="translate(-64.969379,-73.639695)">
    <path
       id="path983-0"
       d="m 70.379309,79.050953 h -0.94033 v -1.473464 c 0,-0.351367 -0.007,-0.80354 -0.49001,-0.80354 -0.49027,0 -0.56515,0.382323 -0.56515,0.77761 v 1.499394 h -0.94033 v -3.030008 h 0.90329 v 0.413014 h 0.0122 c 0.12621,-0.238125 0.43312,-0.489479 0.89165,-0.489479 0.95276,0 1.12897,0.627063 1.12897,1.443302 v 1.663171 z m -3.99784,-3.44461 c -0.3027,0 -0.54585,-0.245004 -0.54585,-0.546365 0,-0.301096 0.24342,-0.545835 0.54585,-0.545835 0.30162,0 0.5461,0.244739 0.5461,0.545835 0,0.301361 -0.24475,0.546365 -0.5461,0.546365 z m 0.47149,3.44461 h -0.94299 v -3.030008 h 0.94299 z m 3.99678,-5.411258 h -5.41179 c -0.25902,0 -0.46857,0.204787 -0.46857,0.457464 v 5.435071 c 0,0.252942 0.20955,0.457465 0.46857,0.457465 h 5.411 c 0.25876,0 0.47043,-0.204523 0.47043,-0.457465 v -5.435071 c 0,-0.252677 -0.21167,-0.457464 -0.47043,-0.457464 z"
       inkscape:connector-curvature="0"
       style="stroke-width:0.26458332" />
  </g>
</svg>
