<?xml version="1.0" encoding="UTF-8" standalone="no"?>
<!-- Created with Inkscape (http://www.inkscape.org/) -->

<svg
   xmlns:dc="http://purl.org/dc/elements/1.1/"
   xmlns:cc="http://creativecommons.org/ns#"
   xmlns:rdf="http://www.w3.org/1999/02/22-rdf-syntax-ns#"
   xmlns:svg="http://www.w3.org/2000/svg"
   xmlns="http://www.w3.org/2000/svg"
   xmlns:sodipodi="http://sodipodi.sourceforge.net/DTD/sodipodi-0.dtd"
   xmlns:inkscape="http://www.inkscape.org/namespaces/inkscape"
   width="6.3499999mm"
   height="6.3499999mm"
   viewBox="0 0 6.3499999 6.3499999"
   version="1.1"
   id="svg1713"
   sodipodi:docname="mail_box.svg"
   inkscape:version="0.92.4 (5da689c313, 2019-01-14)">
  <defs
     id="defs1707" />
  <sodipodi:namedview
     id="base"
     pagecolor="#ffffff"
     bordercolor="#666666"
     borderopacity="1.0"
     inkscape:pageopacity="0.0"
     inkscape:pageshadow="2"
     inkscape:zoom="22.4"
     inkscape:cx="11.831601"
     inkscape:cy="9.0948803"
     inkscape:document-units="mm"
     inkscape:current-layer="layer1"
     showgrid="false"
     inkscape:window-width="1920"
     inkscape:window-height="1001"
     inkscape:window-x="-9"
     inkscape:window-y="-9"
     inkscape:window-maximized="1" />
  <metadata
     id="metadata1710">
    <rdf:RDF>
      <cc:Work
         rdf:about="">
        <dc:format>image/svg+xml</dc:format>
        <dc:type
           rdf:resource="http://purl.org/dc/dcmitype/StillImage" />
        <dc:title></dc:title>
      </cc:Work>
    </rdf:RDF>
  </metadata>
  <g
     inkscape:label="Layer 1"
     inkscape:groupmode="layer"
     id="layer1"
     transform="translate(-87.931432,-100.60593)">
    <path
       inkscape:connector-curvature="0"
       style="stroke-width:0.26458332"
       d="m 88.400136,100.60593 c -0.259019,0 -0.468704,0.20518 -0.468704,0.45785 v 5.43481 c 0,0.25295 0.209685,0.45734 0.468704,0.45734 h 5.411039 c 0.25876,0 0.470257,-0.20439 0.470257,-0.45734 v -5.43481 c 0,-0.25233 -0.210939,-0.4573 -0.469223,-0.45785 z m 1.041797,1.74666 h 3.378089 c 0.05545,0 0.107545,0.0137 0.154511,0.0362 l -1.589048,1.58078 c -0.140488,0.14048 -0.368527,0.14048 -0.509013,0 l -1.58905,-1.58078 c 0.04697,-0.0225 0.09905,-0.0362 0.154511,-0.0362 z m -0.312642,0.21756 1.412316,1.4056 5.3e-4,-5.3e-4 0.176215,0.17622 c 0.234082,0.23408 0.61496,0.23408 0.849045,0 l 0.175699,-0.17622 5.29e-4,5.3e-4 1.412317,-1.4056 c 0.02246,0.047 0.03617,0.0991 0.03617,0.15451 v 2.30426 c 0,0.0545 -0.02418,0.0909 -0.06873,0.13591 -2.64e-4,2.6e-4 -7.94e-4,2.3e-4 -0.0011,5.2e-4 -5.29e-4,5.3e-4 -5.29e-4,10e-4 -0.0011,0.002 l -5.29e-4,-5.3e-4 c -0.04641,0.0451 -0.126201,0.079 -0.180866,0.0791 l -3.615801,0.001 c -0.05411,1e-5 -0.143278,-0.0302 -0.181385,-0.0765 l -0.0011,0.001 c -0.0011,-0.001 -5.29e-4,-0.002 -0.0016,-0.003 -2.65e-4,-2.7e-4 -7.94e-4,-8e-4 -0.0011,-10e-4 l 5.3e-4,-5.3e-4 c -0.04907,-0.0652 -0.04439,-0.10618 -0.04444,-0.1602 l -0.0021,-2.28151 c -3.9e-5,-0.0555 0.01371,-0.10754 0.03617,-0.15451 z"
       id="path983-2-6-2-9" />
  </g>
</svg>
