<?xml version="1.0" encoding="UTF-8"?>
<!-- Created with Inkscape (http://www.inkscape.org/) -->
<svg width="6.35mm" height="6.35mm" version="1.1" viewBox="0 0 6.35 6.35" xmlns="http://www.w3.org/2000/svg" xmlns:cc="http://creativecommons.org/ns#" xmlns:dc="http://purl.org/dc/elements/1.1/" xmlns:rdf="http://www.w3.org/1999/02/22-rdf-syntax-ns#">
 <metadata>
  <rdf:RDF>
   <cc:Work rdf:about="">
    <dc:format>image/svg+xml</dc:format>
    <dc:type rdf:resource="http://purl.org/dc/dcmitype/StillImage"/>
    <dc:title/>
   </cc:Work>
  </rdf:RDF>
 </metadata>
 <g transform="translate(-87.931 -100.61)">
  <path d="m88.4 100.61c-0.25902 0-0.4687 0.20518-0.4687 0.45785v5.4348c0 0.25295 0.20968 0.45734 0.4687 0.45734h5.411c0.25876 0 0.47026-0.20439 0.47026-0.45734v-5.4348c0-0.25233-0.21094-0.4573-0.46922-0.45785zm1.0418 1.7467h3.3781c0.05545 0 0.10754 0.0137 0.15451 0.0362l-1.589 1.5808c-0.14049 0.14048-0.36853 0.14048-0.50901 0l-1.589-1.5808c0.04697-0.0225 0.09905-0.0362 0.15451-0.0362zm-0.31264 0.21756 1.4123 1.4056 5.3e-4 -5.3e-4 0.17622 0.17622c0.23408 0.23408 0.61496 0.23408 0.84904 0l0.1757-0.17622 5.29e-4 5.3e-4 1.4123-1.4056c0.02246 0.047 0.03617 0.0991 0.03617 0.15451v2.3043c0 0.0545-0.02418 0.0909-0.06873 0.13591-2.64e-4 2.6e-4 -7.94e-4 2.3e-4 -0.0011 5.2e-4 -5.29e-4 5.3e-4 -5.29e-4 1e-3 -0.0011 2e-3l-5.29e-4 -5.3e-4c-0.04641 0.0451-0.1262 0.079-0.18087 0.0791l-3.6158 1e-3c-0.05411 1e-5 -0.14328-0.0302-0.18138-0.0765l-0.0011 1e-3c-0.0011-1e-3 -5.29e-4 -2e-3 -0.0016-3e-3 -2.65e-4 -2.7e-4 -7.94e-4 -8e-4 -0.0011-1e-3l5.3e-4 -5.3e-4c-0.04907-0.0652-0.04439-0.10618-0.04444-0.1602l-0.0021-2.2815c-3.9e-5 -0.0555 0.01371-0.10754 0.03617-0.15451z" stroke-width=".26458"/>
 </g>
</svg>
