<?xml version="1.0" encoding="UTF-8" standalone="no"?>
<!-- Created with Inkscape (http://www.inkscape.org/) -->

<svg
   width="6.3499999mm"
   height="6.3499999mm"
   viewBox="0 0 6.3499999 6.3499997"
   version="1.1"
   id="svg5"
   xmlns="http://www.w3.org/2000/svg"
   xmlns:svg="http://www.w3.org/2000/svg">
  <defs
     id="defs2">
    <linearGradient
       id="linearGradient29190">
      <stop
         style="stop-color:#ffffff;stop-opacity:1;"
         offset="0"
         id="stop29188" />
    </linearGradient>
    <marker
       style="overflow:visible"
       id="TriangleOutM"
       refX="0"
       refY="0"
       orient="auto">
      <path
         transform="scale(0.4)"
         style="fill:context-stroke;fill-rule:evenodd;stroke:context-stroke;stroke-width:1pt"
         d="M 5.77,0 -2.88,5 V -5 Z"
         id="path3587" />
    </marker>
    <marker
       style="overflow:visible"
       id="marker17766"
       refX="0"
       refY="0"
       orient="auto">
      <path
         transform="matrix(-0.3,0,0,-0.3,0.69,0)"
         d="M 8.7185878,4.0337352 -2.2072895,0.01601326 8.7185884,-4.0017078 c -1.7454984,2.3720609 -1.7354408,5.6174519 -6e-7,8.035443 z"
         style="fill:context-stroke;fill-rule:evenodd;stroke:context-stroke;stroke-width:0.625;stroke-linejoin:round"
         id="path17764" />
    </marker>
    <marker
       style="overflow:visible"
       id="Arrow1Send"
       refX="0"
       refY="0"
       orient="auto">
      <path
         transform="matrix(-0.2,0,0,-0.2,-1.2,0)"
         style="fill:context-stroke;fill-rule:evenodd;stroke:context-stroke;stroke-width:1pt"
         d="M 0,0 5,-5 -12.5,0 5,5 Z"
         id="path3457" />
    </marker>
    <marker
       style="overflow:visible"
       id="marker17754"
       refX="0"
       refY="0"
       orient="auto">
      <path
         transform="matrix(-0.3,0,0,-0.3,0.69,0)"
         d="M 8.7185878,4.0337352 -2.2072895,0.01601326 8.7185884,-4.0017078 c -1.7454984,2.3720609 -1.7354408,5.6174519 -6e-7,8.035443 z"
         style="fill:context-stroke;fill-rule:evenodd;stroke:context-stroke;stroke-width:0.625;stroke-linejoin:round"
         id="path17752" />
    </marker>
    <marker
       style="overflow:visible"
       id="Arrow2Send"
       refX="0"
       refY="0"
       orient="auto">
      <path
         transform="matrix(-0.3,0,0,-0.3,0.69,0)"
         d="M 8.7185878,4.0337352 -2.2072895,0.01601326 8.7185884,-4.0017078 c -1.7454984,2.3720609 -1.7354408,5.6174519 -6e-7,8.035443 z"
         style="fill:context-stroke;fill-rule:evenodd;stroke:context-stroke;stroke-width:0.625;stroke-linejoin:round"
         id="path3475" />
    </marker>
    <marker
       style="overflow:visible"
       id="EmptyTriangleOutM"
       refX="0"
       refY="0"
       orient="auto">
      <path
         transform="matrix(0.4,0,0,0.4,-1.8,0)"
         style="fill:context-fill;fill-rule:evenodd;stroke:context-stroke;stroke-width:1pt"
         d="M 5.77,0 -2.88,5 V -5 Z"
         id="path3605" />
    </marker>
    <marker
       style="overflow:visible"
       id="EmptyTriangleOutM-8"
       refX="0"
       refY="0"
       orient="auto">
      <path
         transform="matrix(0.4,0,0,0.4,-1.8,0)"
         style="fill:context-fill;fill-rule:evenodd;stroke:context-stroke;stroke-width:1pt"
         d="M 5.77,0 -2.88,5 V -5 Z"
         id="path3605-8" />
    </marker>
    <marker
       style="overflow:visible"
       id="EmptyTriangleOutM-8-3"
       refX="0"
       refY="0"
       orient="auto">
      <path
         transform="matrix(0.4,0,0,0.4,-1.8,0)"
         style="fill:context-fill;fill-rule:evenodd;stroke:context-stroke;stroke-width:1pt"
         d="M 5.77,0 -2.88,5 V -5 Z"
         id="path3605-8-2" />
    </marker>
    <marker
       style="overflow:visible"
       id="EmptyTriangleOutM-81"
       refX="0"
       refY="0"
       orient="auto">
      <path
         transform="matrix(0.4,0,0,0.4,-1.8,0)"
         style="fill:context-fill;fill-rule:evenodd;stroke:context-stroke;stroke-width:1pt"
         d="M 5.77,0 -2.88,5 V -5 Z"
         id="path3605-9" />
    </marker>
    <marker
       style="overflow:visible"
       id="EmptyTriangleOutM-6"
       refX="0"
       refY="0"
       orient="auto">
      <path
         transform="matrix(0.4,0,0,0.4,-1.8,0)"
         style="fill:context-fill;fill-rule:evenodd;stroke:context-stroke;stroke-width:1pt"
         d="M 5.77,0 -2.88,5 V -5 Z"
         id="path3605-4" />
    </marker>
    <marker
       style="overflow:visible"
       id="EmptyTriangleOutM-87"
       refX="0"
       refY="0"
       orient="auto">
      <path
         transform="matrix(0.4,0,0,0.4,-1.8,0)"
         style="fill:context-fill;fill-rule:evenodd;stroke:context-stroke;stroke-width:1pt"
         d="M 5.77,0 -2.88,5 V -5 Z"
         id="path3605-99" />
    </marker>
    <marker
       style="overflow:visible"
       id="EmptyTriangleOutM-2"
       refX="0"
       refY="0"
       orient="auto">
      <path
         transform="matrix(0.4,0,0,0.4,-1.8,0)"
         style="fill:context-fill;fill-rule:evenodd;stroke:context-stroke;stroke-width:1pt"
         d="M 5.77,0 -2.88,5 V -5 Z"
         id="path3605-84" />
    </marker>
    <marker
       style="overflow:visible"
       id="EmptyTriangleOutM-7"
       refX="0"
       refY="0"
       orient="auto">
      <path
         transform="matrix(0.4,0,0,0.4,-1.8,0)"
         style="fill:context-fill;fill-rule:evenodd;stroke:context-stroke;stroke-width:1pt"
         d="M 5.77,0 -2.88,5 V -5 Z"
         id="path3605-7" />
    </marker>
    <marker
       style="overflow:visible"
       id="EmptyTriangleOutM-7-0"
       refX="0"
       refY="0"
       orient="auto">
      <path
         transform="matrix(0.4,0,0,0.4,-1.8,0)"
         style="fill:context-fill;fill-rule:evenodd;stroke:context-stroke;stroke-width:1pt"
         d="M 5.77,0 -2.88,5 V -5 Z"
         id="path3605-7-9" />
    </marker>
    <marker
       style="overflow:visible"
       id="EmptyTriangleOutM-7-7"
       refX="0"
       refY="0"
       orient="auto">
      <path
         transform="matrix(0.4,0,0,0.4,-1.8,0)"
         style="fill:context-fill;fill-rule:evenodd;stroke:context-stroke;stroke-width:1pt"
         d="M 5.77,0 -2.88,5 V -5 Z"
         id="path3605-7-0" />
    </marker>
    <marker
       style="overflow:visible"
       id="EmptyTriangleOutM-7-7-2"
       refX="0"
       refY="0"
       orient="auto">
      <path
         transform="matrix(0.4,0,0,0.4,-1.8,0)"
         style="fill:context-fill;fill-rule:evenodd;stroke:context-stroke;stroke-width:1pt"
         d="M 5.77,0 -2.88,5 V -5 Z"
         id="path3605-7-0-2" />
    </marker>
    <marker
       style="overflow:visible"
       id="EmptyTriangleOutM-7-7-2-7"
       refX="0"
       refY="0"
       orient="auto">
      <path
         transform="matrix(0.4,0,0,0.4,-1.8,0)"
         style="fill:context-fill;fill-rule:evenodd;stroke:context-stroke;stroke-width:1pt"
         d="M 5.77,0 -2.88,5 V -5 Z"
         id="path3605-7-0-2-9" />
    </marker>
    <marker
       style="overflow:visible"
       id="EmptyTriangleOutM-2-9"
       refX="0"
       refY="0"
       orient="auto">
      <path
         transform="matrix(0.4,0,0,0.4,-1.8,0)"
         style="fill:context-fill;fill-rule:evenodd;stroke:context-stroke;stroke-width:1pt"
         d="M 5.77,0 -2.88,5 V -5 Z"
         id="path3605-84-4" />
    </marker>
    <marker
       style="overflow:visible"
       id="TriangleOutM-6"
       refX="0"
       refY="0"
       orient="auto">
      <path
         transform="scale(0.4)"
         style="fill:context-stroke;fill-rule:evenodd;stroke:context-stroke;stroke-width:1pt"
         d="M 5.77,0 -2.88,5 V -5 Z"
         id="path3587-4" />
    </marker>
    <marker
       style="overflow:visible"
       id="TriangleOutM-2"
       refX="0"
       refY="0"
       orient="auto">
      <path
         transform="scale(0.4)"
         style="fill:context-stroke;fill-rule:evenodd;stroke:context-stroke;stroke-width:1pt"
         d="M 5.77,0 -2.88,5 V -5 Z"
         id="path3587-3" />
    </marker>
    <marker
       style="overflow:visible"
       id="TriangleOutM-7"
       refX="0"
       refY="0"
       orient="auto">
      <path
         transform="scale(0.4)"
         style="fill:context-stroke;fill-rule:evenodd;stroke:context-stroke;stroke-width:1pt"
         d="M 5.77,0 -2.88,5 V -5 Z"
         id="path3587-2" />
    </marker>
    <marker
       style="overflow:visible"
       id="TriangleOutM-1"
       refX="0"
       refY="0"
       orient="auto">
      <path
         transform="scale(0.4)"
         style="fill:context-stroke;fill-rule:evenodd;stroke:context-stroke;stroke-width:1pt"
         d="M 5.77,0 -2.88,5 V -5 Z"
         id="path3587-1" />
    </marker>
    <marker
       style="overflow:visible"
       id="TriangleOutM-25"
       refX="0"
       refY="0"
       orient="auto">
      <path
         transform="scale(0.4)"
         style="fill:context-stroke;fill-rule:evenodd;stroke:context-stroke;stroke-width:1pt"
         d="M 5.77,0 -2.88,5 V -5 Z"
         id="path3587-9" />
    </marker>
    <marker
       style="overflow:visible"
       id="TriangleOutM-9"
       refX="0"
       refY="0"
       orient="auto">
      <path
         transform="scale(0.4)"
         style="fill:context-stroke;fill-rule:evenodd;stroke:context-stroke;stroke-width:1pt"
         d="M 5.77,0 -2.88,5 V -5 Z"
         id="path3587-19" />
    </marker>
    <marker
       style="overflow:visible"
       id="TriangleOutM-93"
       refX="0"
       refY="0"
       orient="auto">
      <path
         transform="scale(0.4)"
         style="fill:context-stroke;fill-rule:evenodd;stroke:context-stroke;stroke-width:1pt"
         d="M 5.77,0 -2.88,5 V -5 Z"
         id="path3587-6" />
    </marker>
    <marker
       style="overflow:visible"
       id="TriangleOutM-8"
       refX="0"
       refY="0"
       orient="auto">
      <path
         transform="scale(0.4)"
         style="fill:context-stroke;fill-rule:evenodd;stroke:context-stroke;stroke-width:1pt"
         d="M 5.77,0 -2.88,5 V -5 Z"
         id="path3587-31" />
    </marker>
    <marker
       style="overflow:visible"
       id="TriangleOutM-71"
       refX="0"
       refY="0"
       orient="auto">
      <path
         transform="scale(0.4)"
         style="fill:context-stroke;fill-rule:evenodd;stroke:context-stroke;stroke-width:1pt"
         d="M 5.77,0 -2.88,5 V -5 Z"
         id="path3587-7" />
    </marker>
    <marker
       style="overflow:visible"
       id="TriangleOutM-6-5"
       refX="0"
       refY="0"
       orient="auto">
      <path
         transform="scale(0.4)"
         style="fill:context-stroke;fill-rule:evenodd;stroke:context-stroke;stroke-width:1pt"
         d="M 5.77,0 -2.88,5 V -5 Z"
         id="path3587-4-5" />
    </marker>
    <marker
       style="overflow:visible"
       id="TriangleOutM-2-9"
       refX="0"
       refY="0"
       orient="auto">
      <path
         transform="scale(0.4)"
         style="fill:context-stroke;fill-rule:evenodd;stroke:context-stroke;stroke-width:1pt"
         d="M 5.77,0 -2.88,5 V -5 Z"
         id="path3587-3-5" />
    </marker>
    <marker
       style="overflow:visible"
       id="TriangleOutM-7-9"
       refX="0"
       refY="0"
       orient="auto">
      <path
         transform="scale(0.4)"
         style="fill:context-stroke;fill-rule:evenodd;stroke:context-stroke;stroke-width:1pt"
         d="M 5.77,0 -2.88,5 V -5 Z"
         id="path3587-2-5" />
    </marker>
    <marker
       style="overflow:visible"
       id="TriangleOutM-1-7"
       refX="0"
       refY="0"
       orient="auto">
      <path
         transform="scale(0.4)"
         style="fill:context-stroke;fill-rule:evenodd;stroke:context-stroke;stroke-width:1pt"
         d="M 5.77,0 -2.88,5 V -5 Z"
         id="path3587-1-7" />
    </marker>
    <marker
       style="overflow:visible"
       id="TriangleOutM-25-6"
       refX="0"
       refY="0"
       orient="auto">
      <path
         transform="scale(0.4)"
         style="fill:context-stroke;fill-rule:evenodd;stroke:context-stroke;stroke-width:1pt"
         d="M 5.77,0 -2.88,5 V -5 Z"
         id="path3587-9-8" />
    </marker>
    <marker
       style="overflow:visible"
       id="TriangleOutM-9-9"
       refX="0"
       refY="0"
       orient="auto">
      <path
         transform="scale(0.4)"
         style="fill:context-stroke;fill-rule:evenodd;stroke:context-stroke;stroke-width:1pt"
         d="M 5.77,0 -2.88,5 V -5 Z"
         id="path3587-19-3" />
    </marker>
    <marker
       style="overflow:visible"
       id="TriangleOutM-93-0"
       refX="0"
       refY="0"
       orient="auto">
      <path
         transform="scale(0.4)"
         style="fill:context-stroke;fill-rule:evenodd;stroke:context-stroke;stroke-width:1pt"
         d="M 5.77,0 -2.88,5 V -5 Z"
         id="path3587-6-8" />
    </marker>
  </defs>
  <g
     id="layer1"
     transform="translate(-17.310063,-68.411843)" />
  <g
     id="layer2"
     transform="translate(-17.310063,-68.411843)">
    <text
       xml:space="preserve"
       style="font-style:normal;font-weight:normal;font-size:10.5833px;line-height:1.25;font-family:sans-serif;fill:#000000;fill-opacity:1;stroke:none;stroke-width:0.264583"
       x="138.90625"
       y="190.49998"
       id="text8617"><tspan
         id="tspan8615"
         style="stroke-width:0.264583"
         x="138.90625"
         y="190.49998" /></text>
    <path
       id="path983-2-6-1-3-42-79-8-5"
       style="stroke-width:0.264583"
       d="m 17.778767,68.411843 c -0.259019,0 -0.468704,0.205184 -0.468704,0.457853 v 5.434812 c 0,0.252949 0.209685,0.457335 0.468704,0.457335 h 5.411038 c 0.25876,0 0.470258,-0.204386 0.470258,-0.457335 v -5.434812 c 0,-0.252497 -0.21122,-0.457575 -0.469739,-0.457853 z m 2.676324,0.627869 c 0.04347,-5.29e-4 0.08732,2.65e-4 0.131257,0.0021 1.40563,0.05563 2.499894,1.24047 2.444295,2.646352 -0.05586,1.40589 -1.240499,2.500193 -2.64635,2.444295 -1.405641,-0.05588 -2.500611,-1.24047 -2.444813,-2.646352 0.05393,-1.361956 1.167892,-2.431664 2.515611,-2.446361 z m -0.565857,1.414902 c -0.32082,0.0027 -0.640397,0.03619 -0.956016,0.100251 -0.131509,0.02677 -0.216969,0.155014 -0.190169,0.286805 0.02677,0.13149 0.155014,0.216969 0.286805,0.19017 0.50664,-0.103 1.02525,-0.118394 1.540992,-0.04599 0.515699,0.07244 1.009954,0.230034 1.468644,0.468704 0.02519,0.01291 0.05133,0.02133 0.07803,0.02532 0.09932,0.014 0.201313,-0.03458 0.250113,-0.128675 0.06168,-0.119221 0.01532,-0.266147 -0.10387,-0.328147 -0.508059,-0.264279 -1.054542,-0.43883 -1.625222,-0.518829 -0.249682,-0.03503 -0.499785,-0.05172 -0.749308,-0.04961 z m 0.0708,0.8816 c -0.308362,-0.0021 -0.615535,0.03066 -0.917774,0.09715 -0.10655,0.02352 -0.173778,0.129013 -0.150378,0.235643 0.0181,0.08314 0.08596,0.14238 0.165364,0.15348 0.02281,0.003 0.04606,0.0019 0.06977,-0.0031 0.437488,-0.0962 0.88597,-0.113443 1.333251,-0.05064 0.447249,0.06287 0.87421,0.202917 1.26814,0.415997 0.096,0.05188 0.215683,0.01632 0.267684,-0.07958 v -5.29e-4 c 0.052,-0.09614 0.01651,-0.215784 -0.07958,-0.267682 -0.435388,-0.235622 -0.907076,-0.390522 -1.400948,-0.459922 -0.185274,-0.02601 -0.370503,-0.03959 -0.555521,-0.04082 z m -0.03204,0.789098 c -0.264887,2.65e-4 -0.52832,0.0317 -0.787032,0.09457 -0.08191,0.01984 -0.132437,0.102269 -0.112138,0.183967 0.0199,0.0817 0.102068,0.131839 0.183967,0.112138 0.376481,-0.0916 0.763328,-0.110826 1.150319,-0.05633 0.386969,0.05451 0.754218,0.179417 1.09089,0.371036 0.01709,0.01029 0.03554,0.01662 0.05374,0.0186 0.06007,0.0083 0.12188,-0.01955 0.153479,-0.07545 0.0417,-0.07313 0.01648,-0.16604 -0.05633,-0.207741 -0.370469,-0.210738 -0.773723,-0.347924 -1.198893,-0.407725 -0.159427,-0.02244 -0.319074,-0.03326 -0.478007,-0.03307 z" />
  </g>
</svg>
