<?xml version="1.0" encoding="UTF-8" standalone="no"?>
<!-- Created with Inkscape (http://www.inkscape.org/) -->

<svg
   xmlns:dc="http://purl.org/dc/elements/1.1/"
   xmlns:cc="http://creativecommons.org/ns#"
   xmlns:rdf="http://www.w3.org/1999/02/22-rdf-syntax-ns#"
   xmlns:svg="http://www.w3.org/2000/svg"
   xmlns="http://www.w3.org/2000/svg"
   xmlns:sodipodi="http://sodipodi.sourceforge.net/DTD/sodipodi-0.dtd"
   xmlns:inkscape="http://www.inkscape.org/namespaces/inkscape"
   width="210mm"
   height="297mm"
   viewBox="0 0 210 297"
   version="1.1"
   id="svg8"
   inkscape:version="0.92.4 (5da689c313, 2019-01-14)"
   sodipodi:docname="spritesheet.svg">
  <defs
     id="defs2" />
  <sodipodi:namedview
     id="base"
     pagecolor="#ffffff"
     bordercolor="#666666"
     borderopacity="1.0"
     inkscape:pageopacity="0.0"
     inkscape:pageshadow="2"
     inkscape:zoom="5.6568543"
     inkscape:cx="284.67478"
     inkscape:cy="953.18211"
     inkscape:document-units="mm"
     inkscape:current-layer="layer1"
     showgrid="false"
     inkscape:window-width="1920"
     inkscape:window-height="1001"
     inkscape:window-x="-9"
     inkscape:window-y="-9"
     inkscape:window-maximized="1">
    <inkscape:grid
       type="xygrid"
       id="grid889" />
  </sodipodi:namedview>
  <metadata
     id="metadata5">
    <rdf:RDF>
      <cc:Work
         rdf:about="">
        <dc:format>image/svg+xml</dc:format>
        <dc:type
           rdf:resource="http://purl.org/dc/dcmitype/StillImage" />
        <dc:title></dc:title>
      </cc:Work>
    </rdf:RDF>
  </metadata>
  <g
     inkscape:label="Layer 1"
     inkscape:groupmode="layer"
     id="layer1">
    <path
       id="path983"
       d="m 105.26728,46.455232 h -0.94033 v -1.473464 c 0,-0.351367 -0.007,-0.80354 -0.49001,-0.80354 -0.49027,0 -0.56515,0.382323 -0.56515,0.77761 v 1.499394 h -0.94033 v -3.030008 h 0.90329 v 0.413014 h 0.0122 c 0.12621,-0.238125 0.43312,-0.489479 0.89165,-0.489479 0.95276,0 1.12897,0.627063 1.12897,1.443302 v 1.663171 z m -3.99785,-3.44461 c -0.30269,0 -0.54584,-0.245004 -0.54584,-0.546365 0,-0.301096 0.24342,-0.545835 0.54584,-0.545835 0.30163,0 0.5461,0.244739 0.5461,0.545835 0,0.301361 -0.24474,0.546365 -0.5461,0.546365 z m 0.47149,3.44461 h -0.94298 v -3.030008 h 0.94298 z m 3.99679,-5.411258 h -5.41179 c -0.25902,0 -0.468577,0.204787 -0.468577,0.457464 v 5.435071 c 0,0.252942 0.209557,0.457465 0.468577,0.457465 h 5.411 c 0.25876,0 0.47043,-0.204523 0.47043,-0.457465 v -5.435071 c 0,-0.252677 -0.21167,-0.457464 -0.47043,-0.457464 z"
       inkscape:connector-curvature="0"
       style="stroke-width:0.26458332" />
    <path
       id="path983-2"
       d="m 98.181863,41.186481 h -5.411791 c -0.25902,0 -0.468577,0.204787 -0.468577,0.457464 v 5.435071 c 0,0.252942 0.209557,0.457465 0.468577,0.457465 h 5.411001 c 0.25876,0 0.47043,-0.204523 0.47043,-0.457465 v -5.435071 c 0,-0.252677 -0.21167,-0.457464 -0.47043,-0.457464 z"
       inkscape:connector-curvature="0"
       style="stroke-width:0.26458332"
       sodipodi:nodetypes="cssssssscc" />
    <path
       id="path852"
       d="m 97.909131,42.981021 a 1.9190678,1.9190678 0 0 1 -0.542138,0.148728 0.95147376,0.95147376 0 0 0 0.415092,-0.522563 c -0.182505,0.106508 -0.384774,0.184038 -0.600091,0.227218 a 0.94418129,0.94418129 0 0 0 -1.608946,0.860127 c -0.784898,-0.03703 -1.480176,-0.414136 -1.945936,-0.983714 a 0.92537448,0.92537448 0 0 0 -0.127808,0.474968 c 0,0.328161 0.166958,0.616596 0.419892,0.786051 a 0.94111084,0.94111084 0 0 1 -0.427568,-0.118215 v 0.01151 a 0.94475708,0.94475708 0 0 0 0.757264,0.926333 0.95876624,0.95876624 0 0 1 -0.424498,0.01632 0.94725183,0.94725183 0 0 0 0.883539,0.655745 1.8935442,1.8935442 0 0 1 -1.171015,0.403963 c -0.07484,0 -0.149495,-0.0044 -0.224531,-0.01286 a 2.6857354,2.6857354 0 0 0 1.450239,0.423922 c 1.737332,0 2.686314,-1.438534 2.686314,-2.683816 0,-0.0403 0,-0.08059 -0.0029,-0.120901 a 1.9065938,1.9065938 0 0 0 0.472087,-0.488978 z"
       inkscape:connector-curvature="0"
       style="fill:#ffffff;fill-opacity:1;stroke:none;stroke-width:0.26458332;stroke-opacity:0" />
    <path
       id="path983-2-6"
       d="M 90.336361,41.188479 H 84.92457 c -0.25902,0 -0.468577,0.204787 -0.468577,0.457464 v 5.435071 c 0,0.252942 0.209557,0.457465 0.468577,0.457465 h 5.411001 c 0.25876,0 0.47043,-0.204523 0.47043,-0.457465 v -5.435071 c 0,-0.252677 -0.21167,-0.457464 -0.47043,-0.457464 z"
       inkscape:connector-curvature="0"
       style="stroke-width:0.26458332"
       sodipodi:nodetypes="cssssssscc" />
    <path
       id="path865"
       d="m 89.726803,43.324595 a 0.54231739,0.54231739 0 0 0 -0.381564,-0.384081 c -0.336432,-0.09082 -1.685931,-0.09082 -1.685931,-0.09082 0,0 -1.349501,0 -1.686111,0.09082 a 0.54249722,0.54249722 0 0 0 -0.381386,0.384081 c -0.09026,0.338765 -0.09026,1.04543 -0.09026,1.04543 0,0 0,0.706672 0.09026,1.045438 a 0.54231739,0.54231739 0 0 0 0.381565,0.384081 c 0.336431,0.09081 1.685932,0.09081 1.685932,0.09081 0,0 1.349499,0 1.686109,-0.09081 a 0.54213758,0.54213758 0 0 0 0.381564,-0.384081 c 0.09008,-0.338766 0.09008,-1.045438 0.09008,-1.045438 0,0 0,-0.706665 -0.09026,-1.04543 z m -2.508938,1.68701 v -1.283151 l 1.127971,0.641571 z"
       inkscape:connector-curvature="0"
       style="fill:#ffffff;fill-opacity:1;stroke-width:0.26458332" />
    <path
       id="path983-2-6-1"
       d="m 83.067139,41.215705 h -5.411791 c -0.25902,0 -0.468577,0.204787 -0.468577,0.457464 v 5.435071 c 0,0.252942 0.209557,0.457465 0.468577,0.457465 h 5.411001 c 0.25876,0 0.47043,-0.204523 0.47043,-0.457465 v -5.435071 c 0,-0.252677 -0.21167,-0.457464 -0.47043,-0.457464 z"
       inkscape:connector-curvature="0"
       style="stroke-width:0.26458332"
       sodipodi:nodetypes="cssssssscc" />
    <path
       id="path878"
       d="m 78.696202,42.472847 c -0.19725,0.116846 -0.58423,0.561687 -0.587989,0.678533 v 0.193492 c 0,0.244776 0.229184,0.460245 0.436765,0.460245 1.12874,-0.393977 2.550548,-0.03365 3.635391,0 0.207204,0 0.436388,-0.215658 0.436388,-0.460245 V 43.15138 c -0.0037,-0.11647 -0.391116,-0.561687 -0.587988,-0.678533 -0.611093,-0.02141 -1.034708,-0.02517 -1.666277,-0.02499 -0.631569,0 -1.492511,0.01 -1.666277,0.02499 z m -0.211558,1.300405 c -0.02009,0.209083 -0.03022,0.577772 -0.03322,0.723173 v 9.52e-4 l -0.0011,0.219227 c 0.0037,0.438455 -0.04322,1.420939 0.19349,1.662521 0.366695,0.08529 1.041658,0.124359 1.718877,0.124547 0.677219,0 1.352184,-0.03944 1.718876,-0.124735 0.236698,-0.241207 0.189735,-1.22369 0.193491,-1.662146 l -0.0011,-0.219226 v -7.81e-4 c -0.0031,-0.145585 -0.0741,-0.503274 -0.0944,-0.712169 -0.517739,-0.172962 -3.088866,-0.473525 -3.694905,-0.01136 z m 1.013178,0.09452 v 3.77e-4 c 0.149345,3.76e-4 0.281783,0 0.44578,0.179026 0.129058,-0.01352 0.264124,-0.02029 0.399193,-0.02009 0.135256,0 0.270136,0.0066 0.399192,0.02009 0.163999,-0.179026 0.296437,-0.178462 0.445594,-0.179026 0.07063,0 0.352417,0 0.548537,0.551168 l 0.210962,0.756682 c 0.156295,0.562625 -0.04996,0.576339 -0.307332,0.576714 -0.381346,-0.01408 -0.592871,-0.291175 -0.592871,-0.56826 -0.211149,0.03457 -0.457616,0.05186 -0.704082,0.05204 -0.246465,0 -0.492933,-0.01747 -0.704082,-0.05204 0,0.277085 -0.211337,0.554172 -0.592871,0.568448 -0.257363,-7.81e-4 -0.463627,-0.01446 -0.307331,-0.577091 l 0.210774,-0.756493 c 0.196308,-0.551168 0.478091,-0.551168 0.548537,-0.551168 z"
       inkscape:connector-curvature="0"
       style="fill:#ffffff;fill-opacity:1;stroke-width:0.26458332"
       sodipodi:nodetypes="scsscscsscscsscccccccccccccccccccccccccc" />
    <path
       id="path983-2-6-2"
       d="m 75.765167,41.252476 h -5.411791 c -0.25902,0 -0.468577,0.204787 -0.468577,0.457464 v 5.435071 c 0,0.252942 0.209557,0.457465 0.468577,0.457465 h 5.411001 c 0.25876,0 0.47043,-0.204523 0.47043,-0.457465 V 41.70994 c 0,-0.252677 -0.21167,-0.457464 -0.47043,-0.457464 z"
       inkscape:connector-curvature="0"
       style="stroke-width:0.26458332"
       sodipodi:nodetypes="cssssssscc" />
    <g
       id="g979"
       transform="matrix(0.00800585,0,0,0.00800585,71.034703,42.3906)"
       style="fill:#ffffff;fill-opacity:1;stroke-width:33.04874802">
      <g
         id="g895"
         style="fill:#ffffff;fill-opacity:1;stroke-width:33.04874802">
	<g
   id="g893"
   style="fill:#ffffff;fill-opacity:1;stroke-width:33.04874802">
		<path
   id="path891"
   d="M 507.49,101.721 327.69498,280.61252 503.16116,426.02665 C 508.91603,420.27179 512,415.73011 512,408.80411 V 121 c 0,-6.927 -1.703,-13.412 -4.51,-19.279 z"
   inkscape:connector-curvature="0"
   style="fill:#ffffff;fill-opacity:1;stroke-width:33.04874802"
   sodipodi:nodetypes="cccssc" />

	</g>

</g>
      <g
         id="g901"
         style="fill:#ffffff;fill-opacity:1;stroke-width:33.04874802">
	<g
   id="g899"
   style="fill:#ffffff;fill-opacity:1;stroke-width:33.04874802">
		<path
   id="path897"
   d="M 467,76 H 45 c -6.927,0 -13.412,1.703 -19.279,4.51 l 198.463,197.463 c 17.548,17.548 46.084,17.548 63.632,0 L 486.279,80.51 C 480.412,77.703 473.927,76 467,76 Z"
   inkscape:connector-curvature="0"
   style="fill:#ffffff;fill-opacity:1;stroke-width:33.04874802" />

	</g>

</g>
      <g
         id="g907"
         style="fill:#ffffff;fill-opacity:1;stroke-width:33.04874802">
	<g
   id="g905"
   style="fill:#ffffff;fill-opacity:1;stroke-width:33.04874802">
		<path
   id="path903"
   d="M 4.51,101.721 C 1.703,107.588 -0.00618147,114.073 0,121 l 0.25433147,285.00556 c 0.006181,6.92699 -0.85734076,12.01823 5.81920093,20.56061 L 184.48439,280.80779 Z"
   inkscape:connector-curvature="0"
   style="fill:#ffffff;fill-opacity:1;stroke-width:33.04874802"
   sodipodi:nodetypes="cssccc" />

	</g>

</g>
      <g
         id="g913"
         style="fill:#ffffff;fill-opacity:1;stroke-width:33.04874802">
	<g
   id="g911"
   style="fill:#ffffff;fill-opacity:1;stroke-width:33.04874802">
		<path
   id="path909"
   d="m 331,277.211 -21.973,21.973 c -29.239,29.239 -76.816,29.239 -106.055,0 L 181,277.211 5.7138534,426.04913 C 10.254801,432.07375 21.887445,436.00207 28.814445,436 l 451.673515,-0.13488 c 6.927,-0.002 17.1319,-4.30841 22.88676,-10.06327 z"
   inkscape:connector-curvature="0"
   style="fill:#ffffff;fill-opacity:1;stroke-width:33.04874802"
   sodipodi:nodetypes="cscccsscc" />

	</g>

</g>
      <g
         id="g915"
         style="fill:#ffffff;fill-opacity:1;stroke-width:33.04874802">
</g>
      <g
         id="g917"
         style="fill:#ffffff;fill-opacity:1;stroke-width:33.04874802">
</g>
      <g
         id="g919"
         style="fill:#ffffff;fill-opacity:1;stroke-width:33.04874802">
</g>
      <g
         id="g921"
         style="fill:#ffffff;fill-opacity:1;stroke-width:33.04874802">
</g>
      <g
         id="g923"
         style="fill:#ffffff;fill-opacity:1;stroke-width:33.04874802">
</g>
      <g
         id="g925"
         style="fill:#ffffff;fill-opacity:1;stroke-width:33.04874802">
</g>
      <g
         id="g927"
         style="fill:#ffffff;fill-opacity:1;stroke-width:33.04874802">
</g>
      <g
         id="g929"
         style="fill:#ffffff;fill-opacity:1;stroke-width:33.04874802">
</g>
      <g
         id="g931"
         style="fill:#ffffff;fill-opacity:1;stroke-width:33.04874802">
</g>
      <g
         id="g933"
         style="fill:#ffffff;fill-opacity:1;stroke-width:33.04874802">
</g>
      <g
         id="g935"
         style="fill:#ffffff;fill-opacity:1;stroke-width:33.04874802">
</g>
      <g
         id="g937"
         style="fill:#ffffff;fill-opacity:1;stroke-width:33.04874802">
</g>
      <g
         id="g939"
         style="fill:#ffffff;fill-opacity:1;stroke-width:33.04874802">
</g>
      <g
         id="g941"
         style="fill:#ffffff;fill-opacity:1;stroke-width:33.04874802">
</g>
      <g
         id="g943"
         style="fill:#ffffff;fill-opacity:1;stroke-width:33.04874802">
</g>
    </g>
    <path
       id="path983-2-6-1-3"
       d="m 68.069468,41.325456 h -5.411791 c -0.25902,0 -0.468577,0.204787 -0.468577,0.457464 v 5.435071 c 0,0.252942 0.209557,0.457465 0.468577,0.457465 h 5.411001 c 0.25876,0 0.47043,-0.204523 0.47043,-0.457465 V 41.78292 c 0,-0.252677 -0.21167,-0.457464 -0.47043,-0.457464 z"
       inkscape:connector-curvature="0"
       style="stroke-width:0.26458332"
       sodipodi:nodetypes="cssssssscc" />
    <path
       id="path839"
       d="m 64.405856,47.714464 c 0.171626,0.03234 0.234553,-0.0738 0.234553,-0.165044 0,-0.08153 -0.003,-0.297483 -0.0043,-0.583522 -0.9548,0.207092 -1.156174,-0.460527 -1.156174,-0.460527 -0.156178,-0.396165 -0.381863,-0.501999 -0.381863,-0.501999 -0.310925,-0.212815 0.02404,-0.208525 0.02404,-0.208525 0.344678,0.02402 0.525742,0.353547 0.525742,0.353547 0.306061,0.524883 0.803485,0.373283 0.99971,0.285468 0.03089,-0.221967 0.119276,-0.373281 0.217391,-0.459095 -0.762298,-0.08581 -1.563497,-0.381005 -1.563497,-1.696218 0,-0.374713 0.133016,-0.680776 0.353261,-0.921049 -0.03862,-0.08667 -0.154461,-0.435641 0.03003,-0.908464 0,0 0.287471,-0.09212 0.943934,0.351829 0.274599,-0.07637 0.56636,-0.114139 0.85812,-0.115852 0.291761,0.0017 0.583522,0.03947 0.858121,0.115852 0.652173,-0.443935 0.939642,-0.351829 0.939642,-0.351829 0.184496,0.472823 0.06866,0.821793 0.03434,0.908464 0.218819,0.240273 0.351829,0.546336 0.351829,0.921049 0,1.318646 -0.802343,1.608975 -1.566069,1.693358 0.120137,0.102977 0.231691,0.313501 0.231691,0.63501 0,0.459378 -0.0043,0.828372 -0.0043,0.939928 0,0.0901 0.06006,0.197366 0.235984,0.163043"
       inkscape:connector-curvature="0"
       style="fill:#ffffff;fill-opacity:1;stroke-width:0.26458332"
       sodipodi:nodetypes="cscccccccscccccccscssc" />
  </g>
</svg>
