<?xml version="1.0" encoding="UTF-8" standalone="no"?>
<!-- Created with Inkscape (http://www.inkscape.org/) -->

<svg
   width="6.3499999mm"
   height="6.3499999mm"
   viewBox="0 0 6.3499999 6.3499997"
   version="1.1"
   id="svg5"
   xmlns="http://www.w3.org/2000/svg"
   xmlns:svg="http://www.w3.org/2000/svg">
  <defs
     id="defs2">
    <linearGradient
       id="linearGradient29190">
      <stop
         style="stop-color:#ffffff;stop-opacity:1;"
         offset="0"
         id="stop29188" />
    </linearGradient>
    <marker
       style="overflow:visible"
       id="TriangleOutM"
       refX="0"
       refY="0"
       orient="auto">
      <path
         transform="scale(0.4)"
         style="fill:context-stroke;fill-rule:evenodd;stroke:context-stroke;stroke-width:1pt"
         d="M 5.77,0 -2.88,5 V -5 Z"
         id="path3587" />
    </marker>
    <marker
       style="overflow:visible"
       id="marker17766"
       refX="0"
       refY="0"
       orient="auto">
      <path
         transform="matrix(-0.3,0,0,-0.3,0.69,0)"
         d="M 8.7185878,4.0337352 -2.2072895,0.01601326 8.7185884,-4.0017078 c -1.7454984,2.3720609 -1.7354408,5.6174519 -6e-7,8.035443 z"
         style="fill:context-stroke;fill-rule:evenodd;stroke:context-stroke;stroke-width:0.625;stroke-linejoin:round"
         id="path17764" />
    </marker>
    <marker
       style="overflow:visible"
       id="Arrow1Send"
       refX="0"
       refY="0"
       orient="auto">
      <path
         transform="matrix(-0.2,0,0,-0.2,-1.2,0)"
         style="fill:context-stroke;fill-rule:evenodd;stroke:context-stroke;stroke-width:1pt"
         d="M 0,0 5,-5 -12.5,0 5,5 Z"
         id="path3457" />
    </marker>
    <marker
       style="overflow:visible"
       id="marker17754"
       refX="0"
       refY="0"
       orient="auto">
      <path
         transform="matrix(-0.3,0,0,-0.3,0.69,0)"
         d="M 8.7185878,4.0337352 -2.2072895,0.01601326 8.7185884,-4.0017078 c -1.7454984,2.3720609 -1.7354408,5.6174519 -6e-7,8.035443 z"
         style="fill:context-stroke;fill-rule:evenodd;stroke:context-stroke;stroke-width:0.625;stroke-linejoin:round"
         id="path17752" />
    </marker>
    <marker
       style="overflow:visible"
       id="Arrow2Send"
       refX="0"
       refY="0"
       orient="auto">
      <path
         transform="matrix(-0.3,0,0,-0.3,0.69,0)"
         d="M 8.7185878,4.0337352 -2.2072895,0.01601326 8.7185884,-4.0017078 c -1.7454984,2.3720609 -1.7354408,5.6174519 -6e-7,8.035443 z"
         style="fill:context-stroke;fill-rule:evenodd;stroke:context-stroke;stroke-width:0.625;stroke-linejoin:round"
         id="path3475" />
    </marker>
    <marker
       style="overflow:visible"
       id="EmptyTriangleOutM"
       refX="0"
       refY="0"
       orient="auto">
      <path
         transform="matrix(0.4,0,0,0.4,-1.8,0)"
         style="fill:context-fill;fill-rule:evenodd;stroke:context-stroke;stroke-width:1pt"
         d="M 5.77,0 -2.88,5 V -5 Z"
         id="path3605" />
    </marker>
    <marker
       style="overflow:visible"
       id="EmptyTriangleOutM-8"
       refX="0"
       refY="0"
       orient="auto">
      <path
         transform="matrix(0.4,0,0,0.4,-1.8,0)"
         style="fill:context-fill;fill-rule:evenodd;stroke:context-stroke;stroke-width:1pt"
         d="M 5.77,0 -2.88,5 V -5 Z"
         id="path3605-8" />
    </marker>
    <marker
       style="overflow:visible"
       id="EmptyTriangleOutM-8-3"
       refX="0"
       refY="0"
       orient="auto">
      <path
         transform="matrix(0.4,0,0,0.4,-1.8,0)"
         style="fill:context-fill;fill-rule:evenodd;stroke:context-stroke;stroke-width:1pt"
         d="M 5.77,0 -2.88,5 V -5 Z"
         id="path3605-8-2" />
    </marker>
    <marker
       style="overflow:visible"
       id="EmptyTriangleOutM-81"
       refX="0"
       refY="0"
       orient="auto">
      <path
         transform="matrix(0.4,0,0,0.4,-1.8,0)"
         style="fill:context-fill;fill-rule:evenodd;stroke:context-stroke;stroke-width:1pt"
         d="M 5.77,0 -2.88,5 V -5 Z"
         id="path3605-9" />
    </marker>
    <marker
       style="overflow:visible"
       id="EmptyTriangleOutM-6"
       refX="0"
       refY="0"
       orient="auto">
      <path
         transform="matrix(0.4,0,0,0.4,-1.8,0)"
         style="fill:context-fill;fill-rule:evenodd;stroke:context-stroke;stroke-width:1pt"
         d="M 5.77,0 -2.88,5 V -5 Z"
         id="path3605-4" />
    </marker>
    <marker
       style="overflow:visible"
       id="EmptyTriangleOutM-87"
       refX="0"
       refY="0"
       orient="auto">
      <path
         transform="matrix(0.4,0,0,0.4,-1.8,0)"
         style="fill:context-fill;fill-rule:evenodd;stroke:context-stroke;stroke-width:1pt"
         d="M 5.77,0 -2.88,5 V -5 Z"
         id="path3605-99" />
    </marker>
    <marker
       style="overflow:visible"
       id="EmptyTriangleOutM-2"
       refX="0"
       refY="0"
       orient="auto">
      <path
         transform="matrix(0.4,0,0,0.4,-1.8,0)"
         style="fill:context-fill;fill-rule:evenodd;stroke:context-stroke;stroke-width:1pt"
         d="M 5.77,0 -2.88,5 V -5 Z"
         id="path3605-84" />
    </marker>
    <marker
       style="overflow:visible"
       id="EmptyTriangleOutM-7"
       refX="0"
       refY="0"
       orient="auto">
      <path
         transform="matrix(0.4,0,0,0.4,-1.8,0)"
         style="fill:context-fill;fill-rule:evenodd;stroke:context-stroke;stroke-width:1pt"
         d="M 5.77,0 -2.88,5 V -5 Z"
         id="path3605-7" />
    </marker>
    <marker
       style="overflow:visible"
       id="EmptyTriangleOutM-7-0"
       refX="0"
       refY="0"
       orient="auto">
      <path
         transform="matrix(0.4,0,0,0.4,-1.8,0)"
         style="fill:context-fill;fill-rule:evenodd;stroke:context-stroke;stroke-width:1pt"
         d="M 5.77,0 -2.88,5 V -5 Z"
         id="path3605-7-9" />
    </marker>
    <marker
       style="overflow:visible"
       id="EmptyTriangleOutM-7-7"
       refX="0"
       refY="0"
       orient="auto">
      <path
         transform="matrix(0.4,0,0,0.4,-1.8,0)"
         style="fill:context-fill;fill-rule:evenodd;stroke:context-stroke;stroke-width:1pt"
         d="M 5.77,0 -2.88,5 V -5 Z"
         id="path3605-7-0" />
    </marker>
    <marker
       style="overflow:visible"
       id="EmptyTriangleOutM-7-7-2"
       refX="0"
       refY="0"
       orient="auto">
      <path
         transform="matrix(0.4,0,0,0.4,-1.8,0)"
         style="fill:context-fill;fill-rule:evenodd;stroke:context-stroke;stroke-width:1pt"
         d="M 5.77,0 -2.88,5 V -5 Z"
         id="path3605-7-0-2" />
    </marker>
    <marker
       style="overflow:visible"
       id="EmptyTriangleOutM-7-7-2-7"
       refX="0"
       refY="0"
       orient="auto">
      <path
         transform="matrix(0.4,0,0,0.4,-1.8,0)"
         style="fill:context-fill;fill-rule:evenodd;stroke:context-stroke;stroke-width:1pt"
         d="M 5.77,0 -2.88,5 V -5 Z"
         id="path3605-7-0-2-9" />
    </marker>
    <marker
       style="overflow:visible"
       id="EmptyTriangleOutM-2-9"
       refX="0"
       refY="0"
       orient="auto">
      <path
         transform="matrix(0.4,0,0,0.4,-1.8,0)"
         style="fill:context-fill;fill-rule:evenodd;stroke:context-stroke;stroke-width:1pt"
         d="M 5.77,0 -2.88,5 V -5 Z"
         id="path3605-84-4" />
    </marker>
    <marker
       style="overflow:visible"
       id="TriangleOutM-6"
       refX="0"
       refY="0"
       orient="auto">
      <path
         transform="scale(0.4)"
         style="fill:context-stroke;fill-rule:evenodd;stroke:context-stroke;stroke-width:1pt"
         d="M 5.77,0 -2.88,5 V -5 Z"
         id="path3587-4" />
    </marker>
    <marker
       style="overflow:visible"
       id="TriangleOutM-2"
       refX="0"
       refY="0"
       orient="auto">
      <path
         transform="scale(0.4)"
         style="fill:context-stroke;fill-rule:evenodd;stroke:context-stroke;stroke-width:1pt"
         d="M 5.77,0 -2.88,5 V -5 Z"
         id="path3587-3" />
    </marker>
    <marker
       style="overflow:visible"
       id="TriangleOutM-7"
       refX="0"
       refY="0"
       orient="auto">
      <path
         transform="scale(0.4)"
         style="fill:context-stroke;fill-rule:evenodd;stroke:context-stroke;stroke-width:1pt"
         d="M 5.77,0 -2.88,5 V -5 Z"
         id="path3587-2" />
    </marker>
    <marker
       style="overflow:visible"
       id="TriangleOutM-1"
       refX="0"
       refY="0"
       orient="auto">
      <path
         transform="scale(0.4)"
         style="fill:context-stroke;fill-rule:evenodd;stroke:context-stroke;stroke-width:1pt"
         d="M 5.77,0 -2.88,5 V -5 Z"
         id="path3587-1" />
    </marker>
    <marker
       style="overflow:visible"
       id="TriangleOutM-25"
       refX="0"
       refY="0"
       orient="auto">
      <path
         transform="scale(0.4)"
         style="fill:context-stroke;fill-rule:evenodd;stroke:context-stroke;stroke-width:1pt"
         d="M 5.77,0 -2.88,5 V -5 Z"
         id="path3587-9" />
    </marker>
    <marker
       style="overflow:visible"
       id="TriangleOutM-9"
       refX="0"
       refY="0"
       orient="auto">
      <path
         transform="scale(0.4)"
         style="fill:context-stroke;fill-rule:evenodd;stroke:context-stroke;stroke-width:1pt"
         d="M 5.77,0 -2.88,5 V -5 Z"
         id="path3587-19" />
    </marker>
    <marker
       style="overflow:visible"
       id="TriangleOutM-93"
       refX="0"
       refY="0"
       orient="auto">
      <path
         transform="scale(0.4)"
         style="fill:context-stroke;fill-rule:evenodd;stroke:context-stroke;stroke-width:1pt"
         d="M 5.77,0 -2.88,5 V -5 Z"
         id="path3587-6" />
    </marker>
    <marker
       style="overflow:visible"
       id="TriangleOutM-8"
       refX="0"
       refY="0"
       orient="auto">
      <path
         transform="scale(0.4)"
         style="fill:context-stroke;fill-rule:evenodd;stroke:context-stroke;stroke-width:1pt"
         d="M 5.77,0 -2.88,5 V -5 Z"
         id="path3587-31" />
    </marker>
    <marker
       style="overflow:visible"
       id="TriangleOutM-71"
       refX="0"
       refY="0"
       orient="auto">
      <path
         transform="scale(0.4)"
         style="fill:context-stroke;fill-rule:evenodd;stroke:context-stroke;stroke-width:1pt"
         d="M 5.77,0 -2.88,5 V -5 Z"
         id="path3587-7" />
    </marker>
    <marker
       style="overflow:visible"
       id="TriangleOutM-6-5"
       refX="0"
       refY="0"
       orient="auto">
      <path
         transform="scale(0.4)"
         style="fill:context-stroke;fill-rule:evenodd;stroke:context-stroke;stroke-width:1pt"
         d="M 5.77,0 -2.88,5 V -5 Z"
         id="path3587-4-5" />
    </marker>
    <marker
       style="overflow:visible"
       id="TriangleOutM-2-9"
       refX="0"
       refY="0"
       orient="auto">
      <path
         transform="scale(0.4)"
         style="fill:context-stroke;fill-rule:evenodd;stroke:context-stroke;stroke-width:1pt"
         d="M 5.77,0 -2.88,5 V -5 Z"
         id="path3587-3-5" />
    </marker>
    <marker
       style="overflow:visible"
       id="TriangleOutM-7-9"
       refX="0"
       refY="0"
       orient="auto">
      <path
         transform="scale(0.4)"
         style="fill:context-stroke;fill-rule:evenodd;stroke:context-stroke;stroke-width:1pt"
         d="M 5.77,0 -2.88,5 V -5 Z"
         id="path3587-2-5" />
    </marker>
    <marker
       style="overflow:visible"
       id="TriangleOutM-1-7"
       refX="0"
       refY="0"
       orient="auto">
      <path
         transform="scale(0.4)"
         style="fill:context-stroke;fill-rule:evenodd;stroke:context-stroke;stroke-width:1pt"
         d="M 5.77,0 -2.88,5 V -5 Z"
         id="path3587-1-7" />
    </marker>
    <marker
       style="overflow:visible"
       id="TriangleOutM-25-6"
       refX="0"
       refY="0"
       orient="auto">
      <path
         transform="scale(0.4)"
         style="fill:context-stroke;fill-rule:evenodd;stroke:context-stroke;stroke-width:1pt"
         d="M 5.77,0 -2.88,5 V -5 Z"
         id="path3587-9-8" />
    </marker>
    <marker
       style="overflow:visible"
       id="TriangleOutM-9-9"
       refX="0"
       refY="0"
       orient="auto">
      <path
         transform="scale(0.4)"
         style="fill:context-stroke;fill-rule:evenodd;stroke:context-stroke;stroke-width:1pt"
         d="M 5.77,0 -2.88,5 V -5 Z"
         id="path3587-19-3" />
    </marker>
    <marker
       style="overflow:visible"
       id="TriangleOutM-93-0"
       refX="0"
       refY="0"
       orient="auto">
      <path
         transform="scale(0.4)"
         style="fill:context-stroke;fill-rule:evenodd;stroke:context-stroke;stroke-width:1pt"
         d="M 5.77,0 -2.88,5 V -5 Z"
         id="path3587-6-8" />
    </marker>
  </defs>
  <g
     id="layer1"
     transform="translate(-18.879469,-46.473649)" />
  <g
     id="layer2"
     transform="translate(-18.879469,-46.473649)">
    <text
       xml:space="preserve"
       style="font-style:normal;font-weight:normal;font-size:10.5833px;line-height:1.25;font-family:sans-serif;fill:#000000;fill-opacity:1;stroke:none;stroke-width:0.264583"
       x="138.90625"
       y="190.49998"
       id="text8617"><tspan
         id="tspan8615"
         style="stroke-width:0.264583"
         x="138.90625"
         y="190.49998" /></text>
    <path
       id="path983-2-6-1-3-42-7"
       style="stroke-width:0.264583"
       d="m 19.347657,46.473649 c -0.259019,0 -0.468188,0.204658 -0.468188,0.457335 v 5.435328 c 0,0.252941 0.209169,0.457337 0.468188,0.457337 h 5.411039 c 0.25876,0 0.470773,-0.204396 0.470773,-0.457337 v -5.435328 c 0,-0.252341 -0.211447,-0.456792 -0.469738,-0.457335 z m 3.550688,0.785998 c 0.34418,0 0.451183,0.0031 0.520382,0.01497 0.51626,0.08901 0.908756,0.477433 1.006658,0.992704 0.01378,0.0722 0.01601,0.241757 0.01601,1.376145 0,1.421196 0.0019,1.371595 -0.06046,1.557526 -0.0168,0.04846 -0.04972,0.126637 -0.07441,0.173116 -0.19285,0.362966 -0.546725,0.607185 -0.948264,0.652675 -0.09494,0.0099 -0.86265,0.01402 -0.889349,0.0041 -0.01482,-0.0059 -0.01551,-0.224748 -0.01551,-2.381766 0,-1.307462 0.0027,-2.379284 0.0067,-2.382284 0.003,-0.0039 0.200856,-0.0072 0.438217,-0.0072 z m -1.535825,0.0011 c 0.579562,-0.0011 0.596165,2.65e-4 0.606166,0.0181 0.007,0.01384 0.0098,0.769334 0.0098,2.373497 0,2.16394 -7.94e-4,2.354535 -0.0155,2.369365 -0.01484,0.01487 -0.07248,0.01588 -0.626319,0.01188 -0.535051,-0.003 -0.617862,-0.0058 -0.683162,-0.02066 -0.50043,-0.116702 -0.852437,-0.469823 -0.962215,-0.965314 -0.01971,-0.09198 -0.02077,-0.119753 -0.02376,-1.310515 -0.005,-1.296583 -0.0021,-1.394003 0.04134,-1.561145 0.12065,-0.462854 0.503561,-0.815152 0.979271,-0.900203 0.06231,-0.01082 0.203607,-0.014 0.674375,-0.01497 z m 0.22066,0.384987 -0.382923,0.0011 c -0.423289,0.0011 -0.483365,0.007 -0.613916,0.05943 -0.260109,0.103846 -0.453329,0.333938 -0.51263,0.611849 -0.02082,0.09791 -0.02077,2.558862 0.0011,2.658753 0.06626,0.319447 0.302689,0.564382 0.621149,0.646472 0.07418,0.01884 0.113856,0.0208 0.484725,0.02479 l 0.402561,0.0052 v -2.004012 z m -0.740524,0.595832 c 0.223004,-0.0086 0.425022,0.152577 0.463537,0.38292 0.03659,0.213628 -0.09286,0.422344 -0.307475,0.494544 -0.05242,0.01781 -0.08054,0.02109 -0.158647,0.0181 -0.08602,-0.003 -0.102679,-0.0071 -0.168981,-0.03979 -0.09594,-0.04747 -0.165888,-0.117494 -0.212389,-0.213424 -0.0315,-0.0633 -0.03683,-0.08413 -0.04083,-0.162264 -0.0079,-0.150328 0.04344,-0.277937 0.147277,-0.367935 0.05044,-0.04451 0.145439,-0.092 0.207741,-0.10387 0.02336,-0.0046 0.04669,-0.0074 0.06976,-0.0083 z m 2.557984,1.163753 c -0.207248,-0.0019 -0.399899,0.131451 -0.462505,0.335897 -0.02479,0.07714 -0.02593,0.203893 -0.0041,0.279051 0.07219,0.245279 0.335142,0.394493 0.582393,0.330213 0.15231,-0.04055 0.271462,-0.150178 0.331763,-0.306441 0.03259,-0.08505 0.03312,-0.221739 5.29e-4,-0.314711 -0.05143,-0.150325 -0.178001,-0.267957 -0.332279,-0.308507 -0.03863,-0.01005 -0.07737,-0.01513 -0.115755,-0.0155 z" />
  </g>
</svg>
