<?xml version="1.0" encoding="UTF-8" standalone="no"?>
<!-- Created with Inkscape (http://www.inkscape.org/) -->

<svg
   xmlns:dc="http://purl.org/dc/elements/1.1/"
   xmlns:cc="http://creativecommons.org/ns#"
   xmlns:rdf="http://www.w3.org/1999/02/22-rdf-syntax-ns#"
   xmlns:svg="http://www.w3.org/2000/svg"
   xmlns="http://www.w3.org/2000/svg"
   xmlns:sodipodi="http://sodipodi.sourceforge.net/DTD/sodipodi-0.dtd"
   xmlns:inkscape="http://www.inkscape.org/namespaces/inkscape"
   width="6.3499999mm"
   height="6.3499999mm"
   viewBox="0 0 6.3499999 6.3499999"
   version="1.1"
   id="svg3474"
   inkscape:version="0.92.4 (5da689c313, 2019-01-14)"
   sodipodi:docname="twitter_box.svg">
  <defs
     id="defs3468" />
  <sodipodi:namedview
     id="base"
     pagecolor="#ffffff"
     bordercolor="#666666"
     borderopacity="1.0"
     inkscape:pageopacity="0.0"
     inkscape:pageshadow="2"
     inkscape:zoom="11.2"
     inkscape:cx="10.069851"
     inkscape:cy="5.499895"
     inkscape:document-units="mm"
     inkscape:current-layer="layer1"
     showgrid="false"
     inkscape:window-width="1920"
     inkscape:window-height="1001"
     inkscape:window-x="-9"
     inkscape:window-y="-9"
     inkscape:window-maximized="1" />
  <metadata
     id="metadata3471">
    <rdf:RDF>
      <cc:Work
         rdf:about="">
        <dc:format>image/svg+xml</dc:format>
        <dc:type
           rdf:resource="http://purl.org/dc/dcmitype/StillImage" />
        <dc:title></dc:title>
      </cc:Work>
    </rdf:RDF>
  </metadata>
  <g
     inkscape:label="Layer 1"
     inkscape:groupmode="layer"
     id="layer1"
     transform="translate(-123.50844,-85.947545)">
    <path
       inkscape:connector-curvature="0"
       style="stroke-width:0.26458332"
       d="m 123.97663,85.947545 c -0.25902,0 -0.46819,0.204658 -0.46819,0.457335 v 5.435327 c 0,0.252942 0.20917,0.457338 0.46819,0.457338 h 5.41104 c 0.25876,0 0.47077,-0.204396 0.47077,-0.457338 V 86.40488 c 0,-0.252336 -0.21146,-0.456782 -0.46974,-0.457335 z m 3.74034,1.348753 a 0.94418129,0.94418129 0 0 1 0.67179,0.299207 c 0.21532,-0.04318 0.41746,-0.120867 0.59997,-0.227375 a 0.95147376,0.95147376 0 0 1 -0.41497,0.522965 1.9190678,1.9190678 0 0 0 0.54209,-0.148828 l 0.009,0.0036 a 1.9065938,1.9065938 0 0 1 -0.47232,0.489376 c 0.003,0.04031 0.003,0.08011 0.003,0.120407 0,1.245283 -0.94933,2.684074 -2.68666,2.684074 a 2.6857354,2.6857354 0 0 1 -1.44963,-0.423722 c 0.075,0.0085 0.14943,0.01291 0.22427,0.01291 a 1.8935442,1.8935442 0 0 0 1.17099,-0.404109 0.94725183,0.94725183 0 0 1 -0.88315,-0.655772 0.95876626,0.95876626 0 0 0 0.42426,-0.01654 0.9447571,0.9447571 0 0 1 -0.75706,-0.926042 v -0.01188 a 0.94111085,0.94111085 0 0 0 0.42737,0.11834 c -0.25293,-0.169455 -0.41961,-0.457837 -0.41961,-0.785997 a 0.92537449,0.92537449 0 0 1 0.12764,-0.474909 c 0.46576,0.569579 1.16123,0.946891 1.94613,0.983919 a 0.94418129,0.94418129 0 0 1 0.9369,-1.159618 z"
       id="path983-2-7" />
  </g>
</svg>
