<?xml version="1.0" encoding="UTF-8"?>
<!-- Created with Inkscape (http://www.inkscape.org/) -->
<svg width="6.35mm" height="6.35mm" version="1.1" viewBox="0 0 6.35 6.35" xmlns="http://www.w3.org/2000/svg" xmlns:cc="http://creativecommons.org/ns#" xmlns:dc="http://purl.org/dc/elements/1.1/" xmlns:rdf="http://www.w3.org/1999/02/22-rdf-syntax-ns#">
 <metadata>
  <rdf:RDF>
   <cc:Work rdf:about="">
    <dc:format>image/svg+xml</dc:format>
    <dc:type rdf:resource="http://purl.org/dc/dcmitype/StillImage"/>
    <dc:title/>
   </cc:Work>
  </rdf:RDF>
 </metadata>
 <g transform="translate(-101.52 -115.99)">
  <path d="m101.99 115.99c-0.25902 0-0.46819 0.20466-0.46819 0.45734v5.4353c0 0.25295 0.20917 0.45734 0.46819 0.45734h5.411c0.25876 0 0.47077-0.20439 0.47077-0.45734v-5.4353c0-0.25234-0.21145-0.45678-0.46973-0.45734zm3.7403 1.3488a0.94418 0.94418 0 0 1 0.6718 0.2992c0.21531-0.0432 0.41746-0.12086 0.59996-0.22737a0.95147 0.95147 0 0 1-0.41496 0.52296 1.9191 1.9191 0 0 0 0.54208-0.14883l9e-3 4e-3a1.9066 1.9066 0 0 1-0.47232 0.48938c3e-3 0.0403 3e-3 0.0801 3e-3 0.12041 0 1.2453-0.94932 2.6841-2.6867 2.6841a2.6857 2.6857 0 0 1-1.45-0.42374c0.075 8e-3 0.14944 0.0129 0.22428 0.0129a1.8935 1.8935 0 0 0 1.171-0.40411 0.94725 0.94725 0 0 1-0.88315-0.65577 0.95877 0.95877 0 0 0 0.42426-0.0165 0.94476 0.94476 0 0 1-0.75706-0.92605v-0.0119a0.94111 0.94111 0 0 0 0.42737 0.11835c-0.25294-0.16946-0.41962-0.45784-0.41962-0.786a0.92537 0.92537 0 0 1 0.12764-0.47491c0.46576 0.56958 1.1612 0.94689 1.9461 0.98392a0.94418 0.94418 0 0 1 0.93689-1.1596z" fill="#fff" stroke-width=".26458"/>
 </g>
</svg>
