<?xml version="1.0" encoding="UTF-8"?>
<!-- Created with Inkscape (http://www.inkscape.org/) -->
<svg width="6.35mm" height="6.35mm" version="1.1" viewBox="0 0 6.35 6.35" xmlns="http://www.w3.org/2000/svg" xmlns:cc="http://creativecommons.org/ns#" xmlns:dc="http://purl.org/dc/elements/1.1/" xmlns:rdf="http://www.w3.org/1999/02/22-rdf-syntax-ns#">
 <metadata>
  <rdf:RDF>
   <cc:Work rdf:about="">
    <dc:format>image/svg+xml</dc:format>
    <dc:type rdf:resource="http://purl.org/dc/dcmitype/StillImage"/>
    <dc:title/>
   </cc:Work>
  </rdf:RDF>
 </metadata>
 <g transform="translate(-123.51 -85.948)">
  <path d="m123.98 85.948c-0.25902 0-0.46819 0.20466-0.46819 0.45734v5.4353c0 0.25294 0.20917 0.45734 0.46819 0.45734h5.411c0.25876 0 0.47077-0.2044 0.47077-0.45734v-5.4353c0-0.25234-0.21146-0.45678-0.46974-0.45734zm3.7403 1.3488a0.94418 0.94418 0 0 1 0.67179 0.29921c0.21532-0.04318 0.41746-0.12087 0.59997-0.22738a0.95147 0.95147 0 0 1-0.41497 0.52296 1.9191 1.9191 0 0 0 0.54209-0.14883l9e-3 0.0036a1.9066 1.9066 0 0 1-0.47232 0.48938c3e-3 0.04031 3e-3 0.08011 3e-3 0.12041 0 1.2453-0.94933 2.6841-2.6867 2.6841a2.6857 2.6857 0 0 1-1.4496-0.42372c0.075 0.0085 0.14943 0.01291 0.22427 0.01291a1.8935 1.8935 0 0 0 1.171-0.40411 0.94725 0.94725 0 0 1-0.88315-0.65577 0.95877 0.95877 0 0 0 0.42426-0.01654 0.94476 0.94476 0 0 1-0.75706-0.92604v-0.01188a0.94111 0.94111 0 0 0 0.42737 0.11834c-0.25293-0.16946-0.41961-0.45784-0.41961-0.786a0.92537 0.92537 0 0 1 0.12764-0.47491c0.46576 0.56958 1.1612 0.94689 1.9461 0.98392a0.94418 0.94418 0 0 1 0.9369-1.1596z" stroke-width=".26458"/>
 </g>
</svg>
