<?xml version="1.0" encoding="UTF-8" standalone="no"?>
<!-- Created with Inkscape (http://www.inkscape.org/) -->

<svg
   xmlns:dc="http://purl.org/dc/elements/1.1/"
   xmlns:cc="http://creativecommons.org/ns#"
   xmlns:rdf="http://www.w3.org/1999/02/22-rdf-syntax-ns#"
   xmlns:svg="http://www.w3.org/2000/svg"
   xmlns="http://www.w3.org/2000/svg"
   xmlns:sodipodi="http://sodipodi.sourceforge.net/DTD/sodipodi-0.dtd"
   xmlns:inkscape="http://www.inkscape.org/namespaces/inkscape"
   width="6.3499942mm"
   height="6.3499999mm"
   viewBox="0 0 6.3499942 6.3499999"
   version="1.1"
   id="svg2905"
   inkscape:version="0.92.4 (5da689c313, 2019-01-14)"
   sodipodi:docname="youtube_box.svg">
  <defs
     id="defs2899" />
  <sodipodi:namedview
     id="base"
     pagecolor="#ffffff"
     bordercolor="#666666"
     borderopacity="1.0"
     inkscape:pageopacity="0.0"
     inkscape:pageshadow="2"
     inkscape:zoom="22.4"
     inkscape:cx="14.808384"
     inkscape:cy="14.956976"
     inkscape:document-units="mm"
     inkscape:current-layer="layer1"
     showgrid="false"
     inkscape:window-width="1920"
     inkscape:window-height="1001"
     inkscape:window-x="-9"
     inkscape:window-y="-9"
     inkscape:window-maximized="1" />
  <metadata
     id="metadata2902">
    <rdf:RDF>
      <cc:Work
         rdf:about="">
        <dc:format>image/svg+xml</dc:format>
        <dc:type
           rdf:resource="http://purl.org/dc/dcmitype/StillImage" />
        <dc:title></dc:title>
      </cc:Work>
    </rdf:RDF>
  </metadata>
  <g
     inkscape:label="Layer 1"
     inkscape:groupmode="layer"
     id="layer1"
     transform="translate(-93.801876,-69.848121)">
    <path
       inkscape:connector-curvature="0"
       style="stroke-width:0.26458332"
       d="m 94.270064,69.848121 c -0.259019,0 -0.468188,0.204658 -0.468188,0.457335 v 5.435327 c 0,0.252942 0.209169,0.457338 0.468188,0.457338 h 5.411039 c 0.25876,0 0.470767,-0.204396 0.470767,-0.457338 v -5.435327 c 0,-0.252333 -0.211447,-0.456782 -0.469737,-0.457335 z m 2.734718,1.661395 c 0,0 1.349769,-2.64e-4 1.686202,0.09043 a 0.54231738,0.54231738 0 0 1 0.381373,0.384474 c 0.09026,0.338765 0.09043,1.045414 0.09043,1.045414 0,0 1.64e-4,0.706646 -0.08992,1.045413 a 0.54213757,0.54213757 0 0 1 -0.381889,0.383956 c -0.33661,0.09081 -1.686202,0.09095 -1.686202,0.09095 0,0 -1.349254,-1.4e-4 -1.685685,-0.09095 a 0.54231738,0.54231738 0 0 1 -0.381373,-0.383956 c -0.09026,-0.338767 -0.09043,-1.045413 -0.09043,-1.045413 0,0 1.72e-4,-0.706649 0.09043,-1.045414 a 0.54249722,0.54249722 0 0 1 0.381373,-0.384474 c 0.336611,-0.09082 1.685685,-0.09043 1.685685,-0.09043 z m -0.441317,0.878502 v 1.283126 l 1.128098,-0.641305 z"
       id="path983-2-6-3" />
  </g>
</svg>
