<?xml version="1.0" encoding="UTF-8"?>
<!-- Created with Inkscape (http://www.inkscape.org/) -->
<svg width="6.35mm" height="6.35mm" version="1.1" viewBox="0 0 6.35 6.35" xmlns="http://www.w3.org/2000/svg" xmlns:cc="http://creativecommons.org/ns#" xmlns:dc="http://purl.org/dc/elements/1.1/" xmlns:rdf="http://www.w3.org/1999/02/22-rdf-syntax-ns#">
 <metadata>
  <rdf:RDF>
   <cc:Work rdf:about="">
    <dc:format>image/svg+xml</dc:format>
    <dc:type rdf:resource="http://purl.org/dc/dcmitype/StillImage"/>
    <dc:title/>
   </cc:Work>
  </rdf:RDF>
 </metadata>
 <g transform="translate(-93.802 -69.848)">
  <path d="m94.27 69.848c-0.25902 0-0.46819 0.20466-0.46819 0.45734v5.4353c0 0.25294 0.20917 0.45734 0.46819 0.45734h5.411c0.25876 0 0.47077-0.2044 0.47077-0.45734v-5.4353c0-0.25233-0.21145-0.45678-0.46974-0.45734zm2.7347 1.6614s1.3498-2.64e-4 1.6862 0.09043a0.54232 0.54232 0 0 1 0.38137 0.38447c0.09026 0.33876 0.09043 1.0454 0.09043 1.0454s1.64e-4 0.70665-0.08992 1.0454a0.54214 0.54214 0 0 1-0.38189 0.38396c-0.33661 0.09081-1.6862 0.09095-1.6862 0.09095s-1.3493-1.4e-4 -1.6857-0.09095a0.54232 0.54232 0 0 1-0.38137-0.38396c-0.09026-0.33877-0.09043-1.0454-0.09043-1.0454s1.72e-4 -0.70665 0.09043-1.0454a0.5425 0.5425 0 0 1 0.38137-0.38447c0.33661-0.09082 1.6857-0.09043 1.6857-0.09043zm-0.44132 0.8785v1.2831l1.1281-0.6413z" stroke-width=".26458"/>
 </g>
</svg>
