<?xml version="1.0" encoding="UTF-8" standalone="no"?>
<!-- Created with Inkscape (http://www.inkscape.org/) -->

<svg
   xmlns:dc="http://purl.org/dc/elements/1.1/"
   xmlns:cc="http://creativecommons.org/ns#"
   xmlns:rdf="http://www.w3.org/1999/02/22-rdf-syntax-ns#"
   xmlns:svg="http://www.w3.org/2000/svg"
   xmlns="http://www.w3.org/2000/svg"
   xmlns:sodipodi="http://sodipodi.sourceforge.net/DTD/sodipodi-0.dtd"
   xmlns:inkscape="http://www.inkscape.org/namespaces/inkscape"
   width="6.3500071mm"
   height="6.3499999mm"
   viewBox="0 0 6.3500071 6.3499999"
   version="1.1"
   id="svg2905"
   inkscape:version="0.92.4 (5da689c313, 2019-01-14)"
   sodipodi:docname="youtube_box.svg">
  <defs
     id="defs2899" />
  <sodipodi:namedview
     id="base"
     pagecolor="#ffffff"
     bordercolor="#666666"
     borderopacity="1.0"
     inkscape:pageopacity="0.0"
     inkscape:pageshadow="2"
     inkscape:zoom="22.4"
     inkscape:cx="12.763747"
     inkscape:cy="12.912335"
     inkscape:document-units="mm"
     inkscape:current-layer="layer1"
     showgrid="false"
     inkscape:window-width="1920"
     inkscape:window-height="1001"
     inkscape:window-x="-9"
     inkscape:window-y="-9"
     inkscape:window-maximized="1" />
  <metadata
     id="metadata2902">
    <rdf:RDF>
      <cc:Work
         rdf:about="">
        <dc:format>image/svg+xml</dc:format>
        <dc:type
           rdf:resource="http://purl.org/dc/dcmitype/StillImage" />
        <dc:title></dc:title>
      </cc:Work>
    </rdf:RDF>
  </metadata>
  <g
     inkscape:label="Layer 1"
     inkscape:groupmode="layer"
     id="layer1"
     transform="translate(-94.342853,-69.307143)">
    <path
       id="path983-2-6"
       d="m 100.22322,69.307143 h -5.41179 c -0.25902,0 -0.468577,0.204787 -0.468577,0.457464 v 5.435071 c 0,0.252942 0.209557,0.457465 0.468577,0.457465 h 5.411 c 0.25876,0 0.47043,-0.204523 0.47043,-0.457465 v -5.435071 c 0,-0.252677 -0.21167,-0.457464 -0.47043,-0.457464 z"
       inkscape:connector-curvature="0"
       style="stroke-width:0.26458332"
       sodipodi:nodetypes="cssssssscc" />
    <path
       id="path865"
       d="m 99.613663,71.443259 a 0.54231738,0.54231738 0 0 0 -0.381564,-0.384081 c -0.336432,-0.09082 -1.685931,-0.09082 -1.685931,-0.09082 0,0 -1.349501,0 -1.686111,0.09082 a 0.54249722,0.54249722 0 0 0 -0.381386,0.384081 c -0.09026,0.338765 -0.09026,1.04543 -0.09026,1.04543 0,0 0,0.706672 0.09026,1.045438 a 0.54231738,0.54231738 0 0 0 0.381565,0.384081 c 0.336431,0.09081 1.685932,0.09081 1.685932,0.09081 0,0 1.349499,0 1.686109,-0.09081 a 0.54213757,0.54213757 0 0 0 0.381564,-0.384081 c 0.09008,-0.338766 0.09008,-1.045438 0.09008,-1.045438 0,0 0,-0.706665 -0.09026,-1.04543 z m -2.508938,1.68701 v -1.283151 l 1.127971,0.641571 z"
       inkscape:connector-curvature="0"
       style="fill:#ffffff;fill-opacity:1;stroke-width:0.26458332" />
  </g>
</svg>
