<?xml version="1.0" encoding="UTF-8" standalone="no"?>
<!-- Created with Inkscape (http://www.inkscape.org/) -->

<svg
   version="1.1"
   id="svg2024"
   xml:space="preserve"
   width="95"
   height="94.999992"
   viewBox="0 0 95 94.999992"
   xmlns="http://www.w3.org/2000/svg"
   xmlns:svg="http://www.w3.org/2000/svg"><defs
     id="defs2028" /><g
     id="g2030"
     transform="matrix(1.3333333,0,0,1.3333333,0,2.0416664e-6)"><g
       id="g2032"><path
         d="M 0,0 H 71.25 V 71.25 H 0 Z"
         style="fill:#008000;fill-opacity:1;fill-rule:nonzero;stroke:none"
         id="path2034" /><path
         d="m 45,33.75 h 11.25 v 30 H 45 Z"
         style="fill:#808080;fill-opacity:1;fill-rule:nonzero;stroke:none"
         id="path2036" /><path
         d="M 7.5,30 H 18.75 V 63.75 H 7.5 Z"
         style="fill:#808080;fill-opacity:1;fill-rule:nonzero;stroke:none"
         id="path2038" /><path
         d="M 15.453,37.953 7.5,30 31.363,6.137 39.32,14.09 Z"
         style="fill:#808080;fill-opacity:1;fill-rule:nonzero;stroke:none"
         id="path2040" /><path
         d="m 44.625,61.82 -7.957,-7.957 21.215,-21.211 7.953,7.953 z"
         style="fill:#808080;fill-opacity:1;fill-rule:nonzero;stroke:none"
         id="path2042" /><path
         d="M 18.75,34.5 H 45 V 63.75 H 18.75 Z"
         style="fill:#000000;fill-opacity:1;fill-rule:nonzero;stroke:none"
         id="path2044" /><path
         d="M 37.199,53.336 18.637,34.773 39.32,14.09 57.883,32.652 Z"
         style="fill:#000000;fill-opacity:1;fill-rule:nonzero;stroke:none"
         id="path2046" /><path
         d="m 30,52.5 h 3.75 V 60 H 30 Z"
         style="fill:#ffcc00;fill-opacity:1;fill-rule:nonzero;stroke:none"
         id="path2048" /><path
         d="m 30,39.75 h 3.75 V 45 H 30 Z"
         style="fill:#ffcc00;fill-opacity:1;fill-rule:nonzero;stroke:none"
         id="path2050" /><path
         d="M 41.973,32.652 39.32,30 l 5.305,-5.305 2.648,2.653 z"
         style="fill:#ffcc00;fill-opacity:1;fill-rule:nonzero;stroke:none"
         id="path2052" /><path
         d="M 32.652,42.402 30,39.75 l 3.711,-3.711 2.652,2.649 z"
         style="fill:#ffcc00;fill-opacity:1;fill-rule:nonzero;stroke:none"
         id="path2054" /></g></g></svg>
